<svg width="11" height="11" viewBox="0 0 11 11" fill="none" xmlns="http://www.w3.org/2000/svg">
<path d="M0.260073 0.260073C0.56517 -0.0450243 1.05983 -0.0450243 1.36493 0.260073L5.5 4.39515L9.63507 0.260073C9.94017 -0.0450243 10.4348 -0.0450243 10.7399 0.260073C11.045 0.56517 11.045 1.05983 10.7399 1.36493L6.60485 5.5L10.7399 9.63507C11.045 9.94017 11.045 10.4348 10.7399 10.7399C10.4348 11.045 9.94017 11.045 9.63507 10.7399L5.5 6.60485L1.36493 10.7399C1.05983 11.045 0.56517 11.045 0.260073 10.7399C-0.0450243 10.4348 -0.0450243 9.94017 0.260073 9.63507L4.39515 5.5L0.260073 1.36493C-0.0450243 1.05983 -0.0450243 0.56517 0.260073 0.260073Z" fill="white"/>
</svg>