<svg width="30" height="30" viewBox="0 0 30 30" fill="none" xmlns="http://www.w3.org/2000/svg">
<path d="M14.7084 8.91415C11.4873 8.91415 8.87615 11.6389 8.87615 15C8.87615 18.361 11.4873 21.0858 14.7084 21.0858C17.9294 21.0858 20.5406 18.361 20.5406 15C20.5406 11.6389 17.9294 8.91415 14.7084 8.91415ZM10.673 15C10.673 12.6744 12.4797 10.7891 14.7084 10.7891C16.937 10.7891 18.7437 12.6744 18.7437 15C18.7437 17.3255 16.937 19.2108 14.7084 19.2108C12.4797 19.2108 10.673 17.3255 10.673 15Z" fill="white"/>
<path d="M17.9363 2.51883C16.9877 -0.839611 12.4289 -0.839609 11.4803 2.51883L11.3116 3.11586C11.0291 4.11599 9.93439 4.58916 9.05691 4.09041L8.53309 3.79268C5.58647 2.11786 2.36293 5.48156 3.96796 8.55629L4.25329 9.10288C4.73126 10.0185 4.2778 11.1609 3.31935 11.4556L2.74719 11.6316C-0.471314 12.6215 -0.471312 17.3785 2.74719 18.3684L3.31935 18.5444C4.2778 18.8391 4.73126 19.9815 4.25329 20.8971L3.96796 21.4437C2.36293 24.5184 5.58646 27.8821 8.53309 26.2073L9.05691 25.9096C9.9344 25.4108 11.0291 25.884 11.3116 26.8841L11.4803 27.4812C12.4289 30.8396 16.9877 30.8396 17.9363 27.4812L18.105 26.8841C18.3875 25.884 19.4822 25.4108 20.3597 25.9096L20.8835 26.2073C23.8302 27.8821 27.0537 24.5184 25.4487 21.4437L25.1633 20.8971C24.6854 19.9815 25.1388 18.8391 26.0973 18.5444L26.6694 18.3684C29.8879 17.3785 29.8879 12.6215 26.6694 11.6316L26.0973 11.4556C25.1388 11.1609 24.6854 10.0185 25.1633 9.10288L25.4487 8.55629C27.0537 5.48155 23.8301 2.11787 20.8835 3.79268L20.3597 4.09041C19.4822 4.58916 18.3875 4.11599 18.105 3.11586L17.9363 2.51883ZM13.2038 3.04893C13.646 1.48369 15.7707 1.48369 16.2128 3.04893L16.3814 3.64596C16.9876 5.79186 19.3365 6.80712 21.2192 5.73698L21.7431 5.43925C23.1164 4.65868 24.6187 6.22638 23.8707 7.6594L23.5854 8.20599C22.5598 10.1706 23.5328 12.6216 25.5893 13.2541L26.1614 13.4301C27.6614 13.8915 27.6614 16.1085 26.1614 16.5699L25.5893 16.7459C23.5328 17.3784 22.5598 19.8294 23.5854 21.794L23.8707 22.3406C24.6187 23.7736 23.1164 25.3413 21.7431 24.5608L21.2192 24.263C19.3365 23.1929 16.9876 24.2081 16.3814 26.354L16.2128 26.9511C15.7707 28.5163 13.646 28.5163 13.2038 26.9511L13.0352 26.354C12.4291 24.2081 10.0801 23.1929 8.19739 24.263L7.67357 24.5608C6.30026 25.3413 4.79788 23.7736 5.54593 22.3406L5.83125 21.794C6.8568 19.8294 5.88385 17.3784 3.82736 16.7459L3.25521 16.5699C1.75518 16.1085 1.75518 13.8915 3.25521 13.4301L3.82736 13.2541C5.88385 12.6216 6.8568 10.1706 5.83125 8.20599L5.54593 7.6594C4.79788 6.22638 6.30026 4.65868 7.67357 5.43925L8.19738 5.73698C10.0801 6.80712 12.4291 5.79187 13.0352 3.64597L13.2038 3.04893Z" fill="white"/>
</svg>