<svg width="30" height="30" viewBox="0 0 30 30" fill="none" xmlns="http://www.w3.org/2000/svg">
<path d="M15.3436 2.14959C14.9927 1.78347 14.4239 1.78347 14.073 2.14959L3.29177 13.3996C3.12328 13.5754 3.02863 13.8139 3.02863 14.0625V27.1875C3.02863 27.7053 3.43087 28.125 3.92706 28.125H12.013C12.5092 28.125 12.9114 27.7053 12.9114 27.1875V19.6875H16.5052V27.1875C16.5052 27.7053 16.9074 28.125 17.4036 28.125H25.4896C25.9858 28.125 26.388 27.7053 26.388 27.1875V14.0625C26.388 13.8139 26.2933 13.5754 26.1249 13.3996L23.6927 10.8617V4.6875C23.6927 4.16973 23.2904 3.75 22.7943 3.75H20.9974C20.5012 3.75 20.0989 4.16973 20.0989 4.6875V7.11167L15.3436 2.14959ZM4.8255 26.25V14.4508L14.7083 4.13832L24.5911 14.4508V26.25H18.3021V18.75C18.3021 18.2322 17.8998 17.8125 17.4036 17.8125H12.013C11.5168 17.8125 11.1146 18.2322 11.1146 18.75V26.25H4.8255Z" fill="white"/>
</svg>
