<svg width="160" height="61" viewBox="0 0 160 61" fill="none" xmlns="http://www.w3.org/2000/svg">
<g clip-path="url(#clip0_27_208)">
<path fill-rule="evenodd" clip-rule="evenodd" d="M49.9427 36.4075H53.1846C53.691 36.0961 54.2898 35.9372 54.9175 35.9878L60.1046 36.4075H118.403C119.739 36.4075 121.539 37.4283 122.641 38.757H127.155C128.702 38.757 130.283 40.0729 130.669 41.6813L130.83 42.3547C131.879 42.9 132.565 44.0697 132.469 45.3552L132.25 48.2735L133.475 53.3784C133.836 54.8851 133.026 56.1349 131.651 56.2872L131.548 57.6563C131.48 58.559 131.04 59.3432 130.398 59.8585C129.802 60.6167 128.872 61.0719 127.868 60.9907L69.9161 56.3026H60.2141C59.3868 56.3026 58.5499 55.9262 57.8911 55.3298L53.0438 54.9377C51.4172 54.8062 50.1899 53.3146 50.3165 51.6231L51.0298 42.0878L49.1154 39.221C48.082 37.6734 48.454 36.4072 49.9424 36.4072L49.9427 36.4075ZM56.7288 49.9272C56.713 50.0763 56.7505 50.2085 56.8419 50.3236C56.933 50.4388 57.05 50.5016 57.1924 50.5119C57.3349 50.5221 57.4592 50.4767 57.5658 50.3757C57.6722 50.2748 57.7336 50.1496 57.7495 50.0005L58.0632 47.0782L59.6891 47.1953C60.0689 47.2227 60.4342 47.1799 60.785 47.0675C61.136 46.9548 61.4491 46.7851 61.7246 46.5585C62.0002 46.332 62.2274 46.0538 62.4062 45.724C62.5851 45.3945 62.6967 45.0223 62.7414 44.6077C62.7637 44.4004 62.7678 44.2127 62.754 44.0447C62.7202 43.6915 62.635 43.3698 62.4988 43.0802C62.3625 42.7905 62.1862 42.5397 61.9695 42.3278C61.7532 42.1159 61.5002 41.9475 61.2106 41.8221C60.921 41.6969 60.6103 41.6221 60.2779 41.5984C59.8428 41.5671 59.4027 41.5436 58.958 41.5285C58.5133 41.5133 58.0759 41.4652 57.6461 41.384L56.7291 49.9272H56.7288ZM58.191 46.11L58.5849 42.4415L60.1395 42.5534C60.3847 42.571 60.6091 42.6353 60.8124 42.746C61.0159 42.8568 61.1876 43.0007 61.3282 43.178C61.4687 43.3552 61.5743 43.559 61.6452 43.7898C61.7161 44.0205 61.7377 44.2642 61.7101 44.5214C61.6834 44.77 61.6125 45.0029 61.4977 45.2202C61.3826 45.4376 61.235 45.6233 61.0552 45.7773C60.8752 45.9316 60.6734 46.0486 60.4494 46.1286C60.2256 46.2085 59.995 46.24 59.7577 46.2229L58.1912 46.1102L58.191 46.11ZM63.7457 47.9509L67.5908 48.2276C67.8044 48.243 67.9666 48.2171 68.0774 48.1498C68.1883 48.0826 68.2567 47.9289 68.2825 47.6883C68.326 47.2821 68.3055 46.8795 68.2208 46.4808C68.1361 46.0821 67.9931 45.7231 67.7924 45.4036C67.5914 45.0841 67.3329 44.8191 67.0167 44.6084C66.7004 44.3977 66.3328 44.2772 65.9134 44.2471C65.4703 44.2154 65.0626 44.2821 64.6899 44.4473C64.3175 44.6128 63.9895 44.8438 63.7066 45.141C63.4234 45.438 63.1928 45.7871 63.0141 46.1877C62.8355 46.5884 62.7232 47.0044 62.6769 47.4354C62.6272 47.8995 62.6449 48.3456 62.7305 48.7739C62.8162 49.2019 62.9686 49.5825 63.1879 49.9159C63.4073 50.2491 63.6888 50.5221 64.0327 50.7348C64.3766 50.9475 64.7859 51.0709 65.2606 51.1051C65.5534 51.1261 65.824 51.1102 66.0729 51.0572C66.3217 51.0042 66.5869 50.9291 66.8684 50.8326L66.7324 49.9831C66.5195 50.0347 66.2994 50.0794 66.0722 50.1173C65.8448 50.1552 65.6206 50.1662 65.3989 50.1503C65.1298 50.131 64.8867 50.0572 64.6692 49.9286C64.4519 49.8003 64.27 49.6368 64.1239 49.4383C63.9777 49.2398 63.8709 49.0108 63.803 48.7509C63.7351 48.4913 63.716 48.2246 63.7455 47.9511L63.7457 47.9509ZM63.8101 47.1283C63.8693 46.8736 63.9524 46.6206 64.059 46.3694C64.1658 46.1181 64.297 45.8978 64.4528 45.7084C64.6087 45.5192 64.7963 45.3696 65.0152 45.2601C65.2343 45.1506 65.494 45.1066 65.7948 45.1281C66.0559 45.1469 66.2824 45.2278 66.4743 45.3713C66.6663 45.5146 66.8226 45.693 66.9432 45.9064C67.0638 46.1198 67.1502 46.3557 67.202 46.6143C67.254 46.8729 67.2706 47.1269 67.2517 47.376L63.8101 47.1283ZM68.6655 51.2496L69.6756 51.3097L70.0441 47.8775C70.0894 47.4547 70.1698 47.1159 70.2846 46.8609C70.3997 46.606 70.5291 46.4043 70.6725 46.2559C70.8159 46.1076 70.9695 45.9973 71.1327 45.9257C71.2959 45.8538 71.4441 45.7915 71.5772 45.7385C71.7104 45.6854 71.8246 45.6248 71.9197 45.5563C72.0147 45.4879 72.0698 45.3833 72.085 45.2425C72.1027 45.0768 72.0601 44.9357 71.957 44.8199C71.8538 44.7037 71.7231 44.6402 71.565 44.6287C71.4305 44.6192 71.2961 44.6448 71.1621 44.7062C71.0279 44.7675 70.9034 44.8504 70.7885 44.955C70.6737 45.0596 70.5696 45.1753 70.4762 45.3024C70.3827 45.4292 70.3097 45.5537 70.2568 45.6751C70.2764 45.5678 70.2955 45.4627 70.3146 45.3598C70.3337 45.2567 70.3489 45.1513 70.3604 45.0435C70.3756 44.9025 70.3321 44.7866 70.2303 44.6959C70.1286 44.605 70.0181 44.5554 69.8995 44.5468C69.7651 44.5373 69.641 44.5783 69.5276 44.6705C69.4141 44.7627 69.3492 44.8832 69.3333 45.0325L68.6657 51.2501L68.6655 51.2496ZM71.5228 50.4776C71.6315 50.6527 71.7719 50.813 71.9436 50.9589C72.1153 51.1051 72.3013 51.229 72.5016 51.3312C72.7019 51.4334 72.9083 51.515 73.121 51.5761C73.3337 51.6375 73.543 51.6754 73.7485 51.6903C74.0176 51.7096 74.2948 51.6898 74.58 51.6309C74.8654 51.5722 75.1294 51.4701 75.3723 51.3246C75.6151 51.1792 75.8207 50.9914 75.9887 50.7612C76.157 50.5309 76.2585 50.2542 76.293 49.9311C76.3305 49.5828 76.2771 49.2804 76.1333 49.0235C75.9894 48.7666 75.802 48.5444 75.5709 48.3564C75.34 48.1684 75.0825 48.0059 74.7982 47.8685C74.5139 47.7311 74.2536 47.5955 74.0167 47.4613C73.7798 47.3273 73.583 47.1941 73.4258 47.0616C73.2686 46.9291 73.1998 46.7717 73.2193 46.5893C73.2352 46.44 73.281 46.3119 73.3563 46.2044C73.4316 46.097 73.5248 46.0095 73.6355 45.9426C73.7464 45.8753 73.8689 45.8299 74.0029 45.8062C74.1371 45.7825 74.2674 45.7751 74.394 45.7842C74.5998 45.7991 74.786 45.8458 74.9529 45.9247C75.1198 46.0037 75.2701 46.0895 75.4036 46.1826C75.5371 46.2757 75.6556 46.3593 75.7592 46.4339C75.8628 46.5082 75.9581 46.5485 76.0453 46.5546C76.1798 46.5642 76.2939 46.5224 76.3876 46.4288C76.4813 46.3354 76.535 46.2264 76.5483 46.1019C76.5688 45.9113 76.5013 45.7414 76.346 45.5925C76.1906 45.4434 76.0011 45.3151 75.7774 45.207C75.5537 45.099 75.3255 45.0159 75.0926 44.9572C74.8596 44.8988 74.672 44.8643 74.5296 44.8541C74.2763 44.8357 74.019 44.857 73.7573 44.9176C73.4955 44.9783 73.2536 45.0777 73.0315 45.2163C72.8093 45.3549 72.6208 45.5314 72.4664 45.7458C72.3119 45.9602 72.2185 46.2168 72.1865 46.515C72.1508 46.8467 72.2063 47.1283 72.3529 47.3603C72.4995 47.5923 72.6892 47.7939 72.9219 47.9651C73.1546 48.1364 73.4136 48.2865 73.6988 48.4158C73.9838 48.5449 74.2446 48.6786 74.481 48.8167C74.7172 48.9548 74.9126 49.1046 75.0666 49.266C75.2206 49.4275 75.2853 49.6243 75.2604 49.8563C75.2427 50.022 75.1877 50.1623 75.0956 50.2767C75.0035 50.3911 74.8935 50.4877 74.7655 50.5661C74.6375 50.6446 74.498 50.6993 74.3472 50.7304C74.1965 50.7614 74.0538 50.7719 73.9193 50.7622C73.7135 50.7473 73.5379 50.7138 73.392 50.6617C73.246 50.6094 73.1118 50.5414 72.9894 50.4574C72.8669 50.3733 72.7456 50.277 72.6259 50.1679C72.506 50.0592 72.3771 49.9411 72.2394 49.8142L71.5224 50.4769L71.5228 50.4776ZM77.2382 48.4828C77.1919 48.914 77.2078 49.341 77.2861 49.7644C77.3641 50.1877 77.5063 50.5717 77.7124 50.9167C77.9184 51.2616 78.1849 51.5458 78.5116 51.77C78.8382 51.9939 79.2272 52.1222 79.6782 52.1547C80.1213 52.1865 80.5276 52.1156 80.897 51.9416C81.2665 51.7675 81.5874 51.5255 81.8599 51.2151C82.1324 50.9047 82.3523 50.5466 82.5194 50.141C82.6865 49.7353 82.7929 49.321 82.8382 48.8983C82.8845 48.4671 82.8665 48.042 82.7839 47.6226C82.7012 47.2031 82.5585 46.8252 82.3555 46.4889C82.1525 46.1525 81.8873 45.8746 81.56 45.6546C81.2326 45.4349 80.8475 45.309 80.4047 45.277C79.9615 45.2452 79.5555 45.3141 79.1865 45.4838C78.8175 45.6536 78.4971 45.8895 78.2257 46.1916C77.9541 46.4938 77.7329 46.8455 77.5623 47.2466C77.3917 47.648 77.2835 48.0599 77.2382 48.4828ZM78.3049 48.5722C78.3343 48.2987 78.3963 48.0191 78.4906 47.7333C78.585 47.4478 78.7146 47.1877 78.8794 46.9531C79.0442 46.7184 79.2438 46.5302 79.4781 46.3884C79.7127 46.2466 79.9841 46.1868 80.2928 46.209C80.6093 46.2317 80.8699 46.3278 81.075 46.4972C81.2801 46.6666 81.441 46.8744 81.5581 47.121C81.6751 47.3676 81.7494 47.6402 81.7812 47.9391C81.8129 48.2378 81.8136 48.5282 81.7832 48.8101C81.7522 49.1002 81.6889 49.3923 81.5936 49.6861C81.4983 49.98 81.3682 50.2442 81.2034 50.4789C81.0386 50.7135 80.8353 50.8993 80.5934 51.0364C80.3515 51.1736 80.0683 51.2305 79.744 51.207C79.4353 51.1848 79.1807 51.0873 78.9802 50.914C78.7795 50.7409 78.6253 50.5251 78.5176 50.2667C78.4098 50.0083 78.3401 49.7297 78.3083 49.431C78.2766 49.132 78.2754 48.8458 78.3049 48.5722ZM83.2519 52.2865L84.2488 52.3581L84.7041 48.1176C84.7271 47.902 84.7865 47.7015 84.8823 47.5163C84.978 47.331 85.1007 47.1706 85.2508 47.0352C85.4009 46.8998 85.5715 46.7971 85.7623 46.7275C85.9531 46.6575 86.1513 46.6302 86.3571 46.6448C86.5629 46.6597 86.7521 46.7172 86.9245 46.8172C87.0972 46.9174 87.2449 47.045 87.3679 47.2C87.4908 47.3549 87.5812 47.5329 87.6395 47.7333C87.6977 47.9338 87.7152 48.1418 87.692 48.3574L87.2822 52.175C87.267 52.3161 87.3016 52.4417 87.3853 52.5522C87.4691 52.6627 87.5782 52.7228 87.7129 52.7323C87.8554 52.7426 87.9815 52.6993 88.0916 52.603C88.2016 52.5065 88.2647 52.3835 88.2805 52.2344L88.6903 48.4168C88.7294 48.0521 88.7122 47.7123 88.6383 47.398C88.5644 47.0836 88.4385 46.8071 88.261 46.5688C88.0833 46.3305 87.8586 46.1388 87.5872 45.9939C87.3158 45.8492 87.0021 45.7639 86.646 45.7382C86.3216 45.715 85.9992 45.7668 85.6785 45.8942C85.3578 46.0215 85.0913 46.2195 84.8793 46.4884C84.8892 46.3972 84.8998 46.2977 84.9113 46.1899C84.9228 46.0821 84.9196 45.9839 84.9012 45.8947C84.8827 45.8057 84.8431 45.7297 84.7821 45.6668C84.7211 45.604 84.6272 45.5678 84.5006 45.5588C84.3581 45.5485 84.2299 45.5915 84.116 45.6879C84.002 45.7842 83.9369 45.9069 83.921 46.056L83.2521 52.286L83.2519 52.2865ZM94.1828 47.1582C93.9925 46.8521 93.7489 46.6131 93.4524 46.4415C93.1559 46.2699 92.8337 46.1714 92.4854 46.1464C92.0423 46.1146 91.6399 46.186 91.2785 46.3603C90.9169 46.5348 90.6022 46.7732 90.3348 47.0755C90.067 47.3779 89.8502 47.7277 89.684 48.1252C89.5178 48.5226 89.4119 48.9328 89.3666 49.3554C89.3203 49.7866 89.3344 50.2114 89.4092 50.6304C89.4837 51.0494 89.6184 51.4288 89.8131 51.7685C90.0079 52.1083 90.2666 52.3901 90.5893 52.6138C90.9121 52.8375 91.299 52.9655 91.75 52.998C92.1217 53.0247 92.473 52.9646 92.8038 52.8169C93.1345 52.6695 93.4131 52.4324 93.6393 52.1063L93.5364 53.0638L94.5451 53.1364L95.218 46.869C95.2322 46.7363 95.1998 46.6128 95.1201 46.4984C95.0407 46.384 94.9337 46.3222 94.7993 46.3124C94.6568 46.3021 94.5472 46.3214 94.4701 46.3701C94.3932 46.4187 94.3363 46.4838 94.2997 46.5647C94.2631 46.6456 94.2374 46.7377 94.2222 46.8411C94.2072 46.9445 94.1936 47.0499 94.1821 47.1577L94.1828 47.1582ZM90.436 49.42C90.4671 49.1298 90.5323 48.8399 90.631 48.5505C90.7298 48.2611 90.8633 48.0012 91.0315 47.771C91.1998 47.5407 91.4065 47.3593 91.6521 47.2266C91.8975 47.0939 92.1825 47.0391 92.5068 47.0626C92.8392 47.0865 93.1062 47.1787 93.3083 47.3395C93.5104 47.5001 93.6644 47.6993 93.7703 47.9367C93.8764 48.174 93.9395 48.4398 93.9598 48.7336C93.98 49.0274 93.975 49.3153 93.9448 49.5972C93.911 49.9123 93.8536 50.2234 93.7728 50.5309C93.6921 50.8384 93.5728 51.1117 93.4156 51.351C93.2584 51.5903 93.0565 51.7805 92.8102 51.9215C92.5639 52.0626 92.2626 52.1203 91.9067 52.0946C91.5824 52.0711 91.3158 51.9726 91.1073 51.7988C90.8987 51.625 90.7403 51.4112 90.6319 51.1569C90.5237 50.9027 90.4561 50.6221 90.4294 50.3153C90.4024 50.0086 90.4047 49.7101 90.4358 49.42H90.436ZM95.3315 53.1682L96.3296 53.2276L97.3134 44.0628C97.3295 43.9135 97.2957 43.7817 97.2123 43.6671C97.129 43.5524 97.016 43.4901 96.8737 43.4798C96.7312 43.4696 96.6069 43.515 96.5004 43.616C96.3938 43.7169 96.3325 43.8421 96.3167 43.9912L95.3315 53.1684V53.1682ZM97.1129 53.2838L98.1098 53.3557L98.7788 47.1256C98.793 46.9932 98.7603 46.8695 98.6809 46.7553C98.6015 46.6409 98.4945 46.5791 98.36 46.5693C98.2176 46.559 98.0898 46.5979 97.9768 46.6859C97.8638 46.7739 97.7986 46.8966 97.7818 47.054L97.1131 53.284L97.1129 53.2838ZM98.0546 45.0684C98.0422 45.1846 98.0748 45.2892 98.1524 45.3826C98.2302 45.4759 98.3244 45.5265 98.4351 45.5344C98.5539 45.5429 98.6593 45.5067 98.7518 45.4256C98.8441 45.3447 98.8971 45.2418 98.9104 45.1173C98.9238 44.9929 98.8913 44.8863 98.8133 44.7971C98.7353 44.7079 98.6406 44.6595 98.5299 44.6514C98.4033 44.6424 98.2958 44.6783 98.2074 44.7597C98.119 44.8411 98.0679 44.944 98.0548 45.0684H98.0546ZM102.768 47.9514L99.0601 52.6346C98.9852 52.7377 98.9424 52.8392 98.9318 52.9387C98.9166 53.0797 98.95 53.1948 99.0322 53.2843C99.1144 53.3738 99.2186 53.4231 99.3452 53.4322L103.178 53.7079C103.313 53.7177 103.438 53.6827 103.554 53.6035C103.67 53.5241 103.737 53.4099 103.752 53.2606C103.768 53.1195 103.726 53.0017 103.629 52.9071C103.531 52.8123 103.415 52.7602 103.281 52.7504L100.373 52.5412L104.094 47.8465C104.13 47.8074 104.161 47.7614 104.187 47.7091C104.212 47.6566 104.228 47.6013 104.234 47.5434C104.25 47.4024 104.218 47.2894 104.139 47.2044C104.061 47.1193 103.954 47.0721 103.82 47.0623L99.7255 46.7678L99.6226 47.7253L102.767 47.9516L102.768 47.9514ZM108.756 48.2068C108.565 47.9008 108.322 47.6617 108.025 47.4901C107.729 47.3185 107.407 47.22 107.058 47.1951C106.615 47.1633 106.213 47.2347 105.852 47.409C105.49 47.5835 105.175 47.8218 104.908 48.1242C104.64 48.4266 104.423 48.7763 104.257 49.1738C104.091 49.5713 103.985 49.9814 103.94 50.4041C103.893 50.8353 103.908 51.2601 103.982 51.6791C104.057 52.098 104.191 52.4774 104.386 52.8172C104.581 53.1569 104.84 53.4388 105.162 53.6624C105.485 53.8861 105.872 54.0142 106.323 54.0467C106.695 54.0733 107.046 54.0132 107.377 53.8656C107.708 53.7182 107.986 53.4813 108.213 53.155L108.11 54.1124L109.118 54.185L109.791 47.9176C109.805 47.7849 109.773 47.6615 109.693 47.5471C109.614 47.4327 109.507 47.3708 109.373 47.361C109.23 47.3508 109.12 47.3701 109.043 47.4187C108.966 47.4674 108.91 47.5324 108.873 47.6133C108.836 47.6942 108.811 47.7864 108.795 47.8898C108.78 47.9932 108.767 48.0985 108.755 48.2063L108.756 48.2068ZM105.009 50.4686C105.04 50.1784 105.105 49.8888 105.204 49.5991C105.303 49.3097 105.437 49.0499 105.605 48.8196C105.773 48.5893 105.98 48.408 106.225 48.2752C106.471 48.1425 106.755 48.0878 107.08 48.1112C107.412 48.1352 107.679 48.2273 107.881 48.3882C108.083 48.549 108.237 48.748 108.343 48.9853C108.449 49.2227 108.513 49.4884 108.533 49.7822C108.553 50.076 108.548 50.364 108.518 50.6458C108.484 50.9609 108.427 51.2721 108.346 51.5796C108.265 51.8871 108.146 52.1604 107.989 52.3997C107.831 52.639 107.63 52.8291 107.383 52.9702C107.137 53.1112 106.836 53.1689 106.48 53.1432C106.155 53.1198 105.889 53.0213 105.68 52.8475C105.472 52.6737 105.313 52.4598 105.205 52.2056C105.097 51.9514 105.029 51.6707 105.002 51.364C104.975 51.0572 104.978 50.7587 105.009 50.4683L105.009 50.4686ZM110.249 50.8959C110.207 51.2855 110.214 51.6683 110.269 52.044C110.325 52.4197 110.433 52.768 110.594 53.0887C110.755 53.4094 110.97 53.6859 111.24 53.9184C111.51 54.1508 111.835 54.3141 112.216 54.4085C112.179 54.4559 112.114 54.5348 112.023 54.6453C111.931 54.7556 111.839 54.8702 111.747 54.9888C111.654 55.1076 111.57 55.2224 111.495 55.3339C111.419 55.4454 111.378 55.5302 111.372 55.5884C111.36 55.6962 111.386 55.7898 111.449 55.8697C111.513 55.9494 111.595 55.9932 111.698 56.0005C111.769 56.0056 111.847 55.9924 111.93 55.9607C112.013 55.9291 112.078 55.8815 112.125 55.8181L113.104 54.4977C113.215 54.4974 113.35 54.4862 113.508 54.4642C113.666 54.4422 113.817 54.4028 113.963 54.3466C114.108 54.2902 114.236 54.2139 114.346 54.1173C114.456 54.0208 114.52 53.8939 114.537 53.7363C114.55 53.6118 114.517 53.4987 114.436 53.397C114.355 53.295 114.251 53.2396 114.125 53.2305C114.054 53.2254 113.968 53.24 113.869 53.2748C113.769 53.3095 113.662 53.3454 113.546 53.383C113.431 53.4207 113.311 53.4559 113.188 53.4889C113.065 53.5219 112.944 53.5341 112.825 53.5253C112.525 53.5038 112.274 53.4063 112.073 53.2332C111.873 53.0601 111.712 52.848 111.592 52.5969C111.471 52.3461 111.391 52.0709 111.351 51.7715C111.312 51.472 111.306 51.1897 111.334 50.9242C111.365 50.6341 111.432 50.3466 111.535 50.0614C111.637 49.7763 111.774 49.5251 111.944 49.3075C112.115 49.09 112.323 48.9171 112.568 48.7886C112.813 48.66 113.098 48.6074 113.422 48.6307C113.667 48.6483 113.897 48.7191 114.111 48.8431C114.325 48.967 114.528 49.0946 114.722 49.2254L115.302 48.3899C115.153 48.2872 115.012 48.1936 114.877 48.1088C114.743 48.024 114.607 47.9516 114.47 47.8915C114.333 47.8316 114.189 47.7815 114.038 47.7414C113.887 47.7013 113.716 47.6744 113.526 47.6607C113.06 47.6272 112.636 47.6908 112.256 47.8514C111.876 48.012 111.545 48.243 111.261 48.5441C110.978 48.8453 110.75 49.1987 110.579 49.604C110.408 50.0093 110.298 50.44 110.249 50.8961L110.249 50.8959ZM117.774 46.4121C117.64 46.4026 117.522 46.4422 117.421 46.5309C117.32 46.6197 117.262 46.7345 117.246 46.8756C117.231 47.0166 117.266 47.1359 117.351 47.2339C117.436 47.332 117.546 47.3857 117.681 47.3955L120.172 47.5871C120.306 47.5967 120.428 47.5576 120.537 47.4693C120.646 47.3811 120.709 47.2664 120.724 47.1256C120.739 46.9846 120.704 46.8631 120.619 46.7609C120.535 46.6588 120.425 46.6028 120.291 46.593L117.775 46.4119L117.774 46.4121ZM120.386 49.0438C120.195 48.7377 119.952 48.4987 119.655 48.3271C119.359 48.1555 119.037 48.057 118.689 48.032C118.246 48.0003 117.843 48.0714 117.482 48.2459C117.12 48.4204 116.806 48.6588 116.538 48.9611C116.27 49.2635 116.053 49.6133 115.887 50.0108C115.721 50.4082 115.615 50.8184 115.57 51.241C115.524 51.6722 115.538 52.097 115.612 52.516C115.687 52.935 115.822 53.3144 116.016 53.6541C116.211 53.9939 116.47 54.2757 116.793 54.4994C117.115 54.7231 117.502 54.8511 117.953 54.8837C118.325 54.9103 118.676 54.8499 119.007 54.7025C119.338 54.5551 119.616 54.3183 119.843 53.9919L119.74 54.9494L120.748 55.022L121.421 48.7546C121.436 48.6221 121.403 48.4984 121.323 48.3843C121.244 48.2699 121.137 48.208 121.003 48.1982C120.86 48.188 120.75 48.2073 120.673 48.2559C120.596 48.3046 120.54 48.3696 120.503 48.4505C120.466 48.5314 120.441 48.6236 120.425 48.727C120.41 48.8304 120.397 48.936 120.385 49.0438H120.386ZM116.639 51.3056C116.67 51.0154 116.735 50.7255 116.834 50.4361C116.933 50.1467 117.066 49.8868 117.235 49.6566C117.403 49.4263 117.61 49.2449 117.855 49.1122C118.101 48.9795 118.386 48.9247 118.71 48.9482C119.042 48.9721 119.309 49.0643 119.511 49.2251C119.713 49.386 119.867 49.5849 119.973 49.8223C120.079 50.0596 120.143 50.3254 120.163 50.6192C120.183 50.913 120.178 51.2009 120.148 51.4828C120.114 51.7979 120.057 52.109 119.976 52.4165C119.895 52.724 119.776 52.9973 119.619 53.2366C119.461 53.4759 119.26 53.6661 119.013 53.8071C118.767 53.9482 118.466 54.0059 118.11 53.9802C117.785 53.9567 117.519 53.8582 117.31 53.6844C117.102 53.5106 116.943 53.2968 116.835 53.0425C116.727 52.7883 116.659 52.5077 116.632 52.2009C116.605 51.8942 116.608 51.5957 116.639 51.3056H116.639ZM122.31 51.726C122.264 52.1572 122.28 52.5842 122.358 53.0076C122.436 53.431 122.578 53.815 122.784 54.1599C122.99 54.5048 123.257 54.7891 123.584 55.0132C123.911 55.2374 124.299 55.3654 124.75 55.398C125.193 55.4297 125.6 55.3588 125.969 55.1848C126.339 55.011 126.659 54.7688 126.932 54.4583C127.205 54.1479 127.424 53.7898 127.591 53.3843C127.759 52.9785 127.865 52.5642 127.91 52.1415C127.957 51.7103 127.938 51.2853 127.856 50.8658C127.774 50.4464 127.631 50.0684 127.428 49.7321C127.225 49.396 126.959 49.1178 126.632 48.8981C126.305 48.6781 125.92 48.5522 125.477 48.5204C125.034 48.4886 124.628 48.5576 124.259 48.7272C123.89 48.8969 123.569 49.133 123.298 49.4351C123.026 49.7372 122.805 50.0887 122.634 50.4901C122.464 50.8915 122.355 51.3034 122.31 51.7262L122.31 51.726ZM123.377 51.8152C123.406 51.5417 123.468 51.262 123.563 50.9763C123.657 50.6908 123.787 50.4307 123.951 50.196C124.116 49.9614 124.316 49.7732 124.55 49.6314C124.785 49.4896 125.056 49.4297 125.365 49.452C125.681 49.4747 125.942 49.5708 126.147 49.7402C126.352 49.9096 126.513 50.1173 126.63 50.364C126.747 50.6106 126.821 50.8832 126.853 51.1821C126.885 51.4811 126.886 51.7715 126.855 52.053C126.824 52.3432 126.761 52.6353 126.666 52.9291C126.57 53.2229 126.44 53.4872 126.275 53.7218C126.111 53.9565 125.907 54.1423 125.665 54.2794C125.424 54.4165 125.14 54.4735 124.816 54.4503C124.507 54.428 124.253 54.3302 124.052 54.1572C123.852 53.9841 123.697 53.7683 123.59 53.5099C123.482 53.2515 123.412 52.9729 123.38 52.6742C123.349 52.3752 123.347 52.089 123.377 51.8155V51.8152ZM55.2991 36.9025C55.1194 36.9049 54.993 37.0858 55.0443 37.2691C55.0782 37.3899 55.1838 37.4708 55.3019 37.4708C55.7213 37.4696 56.1612 37.5314 56.5753 37.5649C56.698 37.5744 56.8119 37.4945 56.8502 37.3698C56.9042 37.1953 56.7885 37.0117 56.6161 36.9981C56.1886 36.9636 55.7333 36.901 55.2994 36.9022L55.2991 36.9025ZM53.0072 39.0638C53.1043 38.814 52.8541 38.5752 52.6313 38.7042C52.5776 38.7363 52.5387 38.7822 52.5143 38.8423C52.3877 39.1579 52.3134 39.4776 52.2867 39.8194L52.2703 40.0357C52.2517 40.3024 52.556 40.4473 52.7319 40.2532C52.7747 40.2044 52.7986 40.1472 52.8041 40.0807L52.8205 39.8643C52.8421 39.5835 52.9033 39.3229 53.0074 39.0638H53.0072ZM52.5498 43.4806C52.5684 43.2136 52.2641 43.0689 52.0882 43.263C52.0454 43.3119 52.0215 43.3691 52.016 43.4356L51.9313 44.5688C51.9126 44.8355 52.2169 44.9805 52.3928 44.7864C52.4356 44.7375 52.4595 44.6803 52.4651 44.6138L52.5498 43.4806ZM52.2107 48.0134C52.2293 47.7468 51.925 47.6018 51.7492 47.7959C51.7064 47.8448 51.6824 47.902 51.6769 47.9685L51.5922 49.1017C51.5735 49.3684 51.8779 49.5133 52.0537 49.3192C52.0965 49.2704 52.1205 49.2132 52.126 49.1467L52.2107 48.0134ZM52.0981 52.4085C52.0618 52.3038 51.9715 52.2325 51.8673 52.2239C51.6723 52.2102 51.5287 52.4112 51.5963 52.6062C51.7319 52.9993 51.9393 53.3562 52.2059 53.6641C52.306 53.7783 52.4724 53.7861 52.5815 53.6817C52.692 53.5762 52.6999 53.3931 52.5983 53.2777C52.3808 53.0289 52.2079 52.727 52.0981 52.4085ZM55.3783 54.2217C55.2556 54.2119 55.1417 54.2921 55.1035 54.4168C55.0494 54.5913 55.1652 54.7749 55.3376 54.7886L56.405 54.8749C56.5277 54.8844 56.6416 54.8045 56.6798 54.6798C56.7339 54.5053 56.6184 54.3217 56.4457 54.308L55.3783 54.2217ZM59.6481 54.5671C59.5254 54.5576 59.4115 54.6375 59.3735 54.7622C59.3194 54.9367 59.4349 55.1203 59.6076 55.134L60.675 55.2202C60.7977 55.2298 60.9116 55.1498 60.9498 55.0252C61.0039 54.8507 60.8883 54.6671 60.7157 54.6534L59.6483 54.5671H59.6481ZM63.9179 54.9125C63.7952 54.903 63.6812 54.9829 63.643 55.1076C63.5889 55.2821 63.7045 55.4657 63.8771 55.4793L64.9445 55.5656C65.0672 55.5752 65.1811 55.4952 65.2191 55.3706C65.2732 55.196 65.1577 55.0125 64.985 54.9988L63.9176 54.9125H63.9179ZM68.1876 55.2579C68.0649 55.2484 67.951 55.3283 67.913 55.453C67.8589 55.6275 67.9745 55.8111 68.1471 55.8247L69.2145 55.911C69.3372 55.9206 69.4511 55.8406 69.4893 55.716C69.5434 55.5414 69.4277 55.3579 69.2552 55.3442L68.1879 55.2579H68.1876ZM72.4574 55.6033C72.3347 55.5937 72.2208 55.6737 72.1825 55.7983C72.1285 55.9729 72.244 56.1564 72.4166 56.1701L73.484 56.2564C73.6067 56.266 73.7207 56.186 73.7589 56.0614C73.813 55.8868 73.6974 55.7033 73.5248 55.6896L72.4574 55.6033ZM76.7272 55.9487C76.6045 55.9391 76.4905 56.0191 76.4523 56.1437C76.3982 56.3183 76.514 56.5018 76.6864 56.5155L77.7538 56.6018C77.8765 56.6113 77.9904 56.5314 78.0286 56.4068C78.0827 56.2322 77.967 56.0486 77.7945 56.035L76.7272 55.9487ZM80.9969 56.2941C80.8742 56.2845 80.7603 56.3645 80.7221 56.4891C80.668 56.6637 80.7835 56.8472 80.9562 56.8609L82.0236 56.9472C82.1463 56.9567 82.2602 56.8768 82.2984 56.7521C82.3525 56.5776 82.237 56.394 82.0643 56.3804L80.9969 56.2941ZM85.2667 56.6395C85.144 56.6299 85.0301 56.7099 84.9918 56.8345C84.9378 57.0091 85.0533 57.1926 85.2259 57.2063L86.2933 57.2926C86.416 57.3021 86.53 57.2222 86.5682 57.0975C86.6223 56.923 86.5067 56.7394 86.3341 56.7257L85.2667 56.6395ZM89.5365 56.9848C89.4138 56.9753 89.2998 57.0552 89.2616 57.1799C89.2075 57.3544 89.3231 57.538 89.4957 57.5517L90.5631 57.638C90.6858 57.6475 90.7997 57.5676 90.8379 57.4429C90.892 57.2684 90.7765 57.0848 90.6038 57.0711L89.5365 56.9848ZM93.8062 57.3302C93.6835 57.3207 93.5696 57.4006 93.5314 57.5253C93.4773 57.6998 93.5928 57.8834 93.7655 57.8971L94.8329 57.9834C94.9556 57.9929 95.0695 57.913 95.1075 57.7883C95.1616 57.6138 95.046 57.4302 94.8734 57.4165L93.806 57.3302H93.8062ZM98.076 57.6756C97.9533 57.6661 97.8394 57.746 97.8012 57.8707C97.7471 58.0452 97.8626 58.2288 98.0353 58.2425L99.1026 58.3288C99.2253 58.3383 99.3393 58.2584 99.3773 58.1337C99.4313 57.9592 99.3158 57.7756 99.1432 57.7619L98.0758 57.6756H98.076ZM102.346 58.021C102.223 58.0115 102.109 58.0914 102.071 58.2161C102.017 58.3906 102.133 58.5742 102.305 58.5879L103.372 58.6742C103.495 58.6837 103.609 58.6038 103.647 58.4791C103.701 58.3046 103.586 58.121 103.413 58.1073L102.346 58.021H102.346ZM106.616 58.3664C106.493 58.3569 106.379 58.4368 106.341 58.5615C106.287 58.736 106.402 58.9196 106.575 58.9333L107.642 59.0196C107.765 59.0291 107.879 58.9492 107.917 58.8245C107.971 58.65 107.855 58.4664 107.683 58.4527L106.616 58.3664ZM110.885 58.7118C110.763 58.7023 110.649 58.7822 110.61 58.9069C110.556 59.0814 110.672 59.265 110.845 59.2787L111.912 59.365C112.035 59.3745 112.149 59.2946 112.187 59.1699C112.241 58.9954 112.125 58.8118 111.953 58.7981L110.885 58.7118ZM115.155 59.0572C115.032 59.0477 114.918 59.1276 114.88 59.2523C114.826 59.4268 114.942 59.6104 115.114 59.6241L116.182 59.7103C116.304 59.7199 116.418 59.6399 116.457 59.5153C116.511 59.3408 116.395 59.1572 116.222 59.1435L115.155 59.0572ZM119.425 59.4026C119.302 59.3931 119.188 59.473 119.15 59.5977C119.096 59.7722 119.212 59.9558 119.384 59.9695L120.452 60.0557C120.574 60.0653 120.688 59.9853 120.727 59.8607C120.781 59.6861 120.665 59.5026 120.492 59.4889L119.425 59.4026H119.425ZM123.695 59.748C123.572 59.7385 123.458 59.8184 123.42 59.9431C123.366 60.1176 123.481 60.3012 123.654 60.3148L124.721 60.4011C124.844 60.4109 124.958 60.3307 124.996 60.2061C125.05 60.0315 124.935 59.848 124.762 59.8343L123.695 59.748H123.695ZM127.837 59.8463C127.611 59.9345 127.599 60.2667 127.819 60.373C127.884 60.4031 127.952 60.4058 128.019 60.3806C128.381 60.244 128.735 60.0186 129.021 59.746C129.197 59.5771 129.093 59.2645 128.856 59.251C128.785 59.2469 128.716 59.273 128.663 59.3234C128.426 59.5483 128.136 59.7333 127.837 59.8463ZM129.563 56.383C129.544 56.6497 129.848 56.7947 130.024 56.6006C130.067 56.5517 130.091 56.4945 130.097 56.428L130.181 55.2948C130.2 55.0281 129.896 54.8832 129.72 55.0772C129.677 55.1261 129.653 55.1833 129.648 55.2498L129.563 56.383H129.563ZM129.902 51.8502C129.883 52.1168 130.188 52.2618 130.363 52.0677C130.406 52.0188 130.43 51.9616 130.436 51.8951L130.52 50.7619C130.539 50.4952 130.235 50.3503 130.059 50.5444C130.016 50.5933 129.992 50.6505 129.987 50.7169L129.902 51.8502H129.902ZM130.241 47.3173C130.222 47.584 130.527 47.7289 130.702 47.5348C130.745 47.486 130.769 47.4288 130.775 47.3623L130.859 46.229C130.878 45.9624 130.574 45.8174 130.398 46.0115C130.355 46.0604 130.331 46.1176 130.326 46.1841L130.241 47.3173H130.241ZM129.011 43.6429C129.222 43.758 129.459 43.5476 129.389 43.3058C129.367 43.2327 129.322 43.1733 129.257 43.1379C128.908 42.945 128.531 42.8252 128.14 42.7849C127.89 42.7619 127.749 43.0782 127.925 43.2689C127.971 43.3161 128.026 43.3439 128.089 43.3505C128.414 43.385 128.721 43.4825 129.011 43.6426L129.011 43.6429ZM124.892 43.0912C125.014 43.1007 125.128 43.0208 125.166 42.8961C125.221 42.7216 125.105 42.538 124.932 42.5243L123.865 42.438C123.742 42.4283 123.628 42.5084 123.59 42.6331C123.536 42.8076 123.652 42.9912 123.824 43.0049L124.892 43.0912H124.892ZM120.622 42.7458C120.744 42.7553 120.858 42.6754 120.897 42.5507C120.951 42.3762 120.835 42.1926 120.663 42.1789L119.595 42.0926C119.472 42.0831 119.359 42.163 119.32 42.2877C119.266 42.4622 119.382 42.6458 119.554 42.6595L120.622 42.7458ZM116.352 42.4004C116.475 42.4099 116.589 42.33 116.627 42.2053C116.681 42.0308 116.565 41.8472 116.393 41.8335L115.325 41.7473C115.203 41.7377 115.089 41.8177 115.051 41.9423C114.996 42.1168 115.112 42.3004 115.285 42.3141L116.352 42.4004ZM112.082 42.055C112.205 42.0645 112.319 41.9846 112.357 41.8599C112.411 41.6854 112.295 41.5018 112.123 41.4882L111.056 41.4019C110.933 41.3923 110.819 41.4723 110.781 41.5969C110.727 41.7715 110.842 41.955 111.015 41.9687L112.083 42.055H112.082ZM107.813 41.7096C107.935 41.7191 108.049 41.6392 108.087 41.5145C108.141 41.34 108.026 41.1564 107.853 41.1428L106.786 41.0565C106.663 41.0469 106.549 41.1269 106.511 41.2515C106.457 41.4261 106.572 41.6096 106.745 41.6233L107.812 41.7096H107.813ZM103.543 41.3642C103.665 41.3738 103.779 41.2938 103.818 41.1692C103.872 40.9946 103.756 40.8111 103.583 40.7974L102.516 40.7111C102.393 40.7015 102.279 40.7815 102.241 40.9061C102.187 41.0807 102.303 41.2642 102.476 41.2779L103.543 41.3642H103.543ZM99.273 41.0188C99.3957 41.0284 99.5096 40.9484 99.5476 40.8238C99.6017 40.6492 99.4861 40.4657 99.3135 40.452L98.2461 40.3657C98.1234 40.3562 98.0095 40.4361 97.9713 40.5607C97.9172 40.7353 98.0329 40.9189 98.2054 40.9325L99.2727 41.0188H99.273ZM95.0032 40.6734C95.1259 40.683 95.2398 40.603 95.2778 40.4784C95.3319 40.3038 95.2164 40.1203 95.0437 40.1066L93.9763 40.0203C93.8536 40.0108 93.7397 40.0907 93.7015 40.2154C93.6474 40.3899 93.763 40.5735 93.9356 40.5871L95.003 40.6734H95.0032ZM90.7334 40.328C90.8561 40.3376 90.9701 40.2576 91.0081 40.133C91.0621 39.9585 90.9466 39.7749 90.774 39.7612L89.7066 39.6749C89.5839 39.6654 89.4699 39.7453 89.4317 39.87C89.3776 40.0445 89.4932 40.2281 89.6658 40.2418L90.7332 40.328H90.7334ZM86.4637 39.9826C86.5864 39.9922 86.7003 39.9123 86.7385 39.7876C86.7926 39.6131 86.6771 39.4295 86.5044 39.4158L85.437 39.3295C85.3143 39.32 85.2004 39.3999 85.1622 39.5246C85.1081 39.6991 85.2236 39.8827 85.3963 39.8964L86.4637 39.9826ZM82.1939 39.6373C82.3166 39.6468 82.4305 39.5669 82.4688 39.4422C82.5228 39.2677 82.4073 39.0841 82.2346 39.0704L81.1673 38.9841C81.0446 38.9746 80.9306 39.0545 80.8924 39.1792C80.8383 39.3537 80.9539 39.5373 81.1265 39.551L82.1939 39.6373ZM77.9241 39.2919C78.0468 39.3014 78.1608 39.2215 78.199 39.0968C78.2531 38.9223 78.1375 38.7387 77.9649 38.725L76.8975 38.6387C76.7748 38.6292 76.6609 38.7091 76.6227 38.8338C76.5686 39.0083 76.6841 39.1919 76.8568 39.2056L77.9241 39.2919ZM73.6544 38.9465C73.7771 38.956 73.891 38.8761 73.9292 38.7514C73.9833 38.5769 73.8678 38.3933 73.6951 38.3796L72.6277 38.2933C72.505 38.2838 72.3911 38.3637 72.3529 38.4884C72.2988 38.6629 72.4144 38.8465 72.587 38.8602L73.6544 38.9465ZM69.3846 38.6011C69.5073 38.6106 69.6212 38.5307 69.6595 38.406C69.7135 38.2315 69.598 38.0479 69.4254 38.0342L68.358 37.9479C68.2353 37.9384 68.1213 38.0183 68.0831 38.143C68.029 38.3175 68.1446 38.5011 68.3172 38.5148L69.3846 38.6011ZM65.1148 38.2557C65.2375 38.2652 65.3515 38.1853 65.3897 38.0606C65.4438 37.8861 65.3282 37.7025 65.1556 37.6888L64.0882 37.6025C63.9655 37.593 63.8516 37.6729 63.8136 37.7976C63.7595 37.9721 63.875 38.1557 64.0477 38.1694L65.1151 38.2557H65.1148ZM60.8451 37.9103C60.9678 37.9198 61.0817 37.8399 61.1199 37.7152C61.174 37.5407 61.0582 37.3571 60.8858 37.3434L59.8184 37.2572C59.6957 37.2476 59.5818 37.3276 59.5438 37.4522C59.4897 37.6267 59.6053 37.8103 59.7779 37.824L60.8453 37.9103H60.8451ZM55.1656 46.5405C54.5998 47.1291 53.6825 47.1318 53.1147 46.5431C52.5475 45.9553 52.5461 45.0012 53.1114 44.4119C53.6768 43.8223 54.595 43.8208 55.1619 44.4075C55.7282 44.9954 55.7305 45.9501 55.1656 46.5405Z" fill="white"/>
<path fill-rule="evenodd" clip-rule="evenodd" d="M138.342 18.2031C138.408 17.9575 138.481 17.7135 138.561 17.471C139.002 16.1266 139.606 14.8514 140.372 13.6822C141.605 11.8008 143.228 10.3857 145.215 9.4879C147.184 8.59839 149.278 8.19751 151.414 8.19751C152.614 8.19751 153.823 8.32119 154.986 8.64605C156.039 8.94036 157.055 9.36862 158.025 9.89245C158.485 10.0721 158.879 10.383 159.178 10.7976C159.511 11.2601 159.708 11.8049 159.708 12.3911C159.708 12.4769 159.702 12.561 159.691 12.6458C159.611 13.2264 159.482 13.7988 159.339 14.3652C159.182 14.987 159.019 15.6072 158.849 16.2251C158.839 16.2601 158.829 16.2948 158.817 16.3293C158.693 16.694 158.58 17.066 158.499 17.4444C158.43 17.7639 158.361 18.0831 158.276 18.3979C158.073 19.2452 157.492 19.8582 156.729 20.1604C156.124 20.4001 155.483 20.4297 154.855 20.2748C154.324 20.1611 153.807 19.9792 153.313 19.7433C152.81 19.5351 152.301 19.3432 151.786 19.1694C151.474 19.064 151.117 18.9707 150.788 18.9707C150.339 18.9707 150.077 19.1105 149.836 19.5153C149.431 20.1956 149.28 20.9626 149.28 21.7605C149.28 22.1736 149.336 22.584 149.434 22.9834C149.525 23.3542 149.655 23.7179 149.84 24.0484C149.957 24.2576 150.102 24.4412 150.292 24.5798C150.396 24.6558 150.496 24.6803 150.621 24.6803C150.824 24.6803 151.039 24.6353 151.235 24.5827C151.549 24.4979 151.859 24.3945 152.163 24.273C152.176 24.2682 152.188 24.2633 152.2 24.2586C152.592 24.1132 152.989 23.9807 153.394 23.8805C153.825 23.7737 154.267 23.726 154.709 23.726C155.407 23.726 156.092 23.8585 156.738 24.1401C157.351 24.4072 157.908 24.7851 158.391 25.2664C158.863 25.7363 159.251 26.2845 159.537 26.9005C159.843 27.559 160 28.2694 160 29.0039C160 30.2613 159.672 31.449 158.91 32.427C158.268 33.2525 157.467 33.889 156.552 34.3366C155.695 34.7561 154.789 35.0491 153.861 35.229C153.081 35.3803 152.288 35.4825 151.495 35.495C151.22 35.539 150.941 35.5397 150.663 35.5397C150.4 35.5397 150.136 35.5356 149.875 35.4889C148.235 35.4089 146.64 35.0262 145.147 34.2919C143.686 33.5735 142.382 32.5857 141.288 31.3298C140.2 30.0794 139.363 28.6329 138.774 27.0511C138.397 26.0425 138.145 24.9995 138.003 23.9364C137.737 24.4239 137.374 24.8533 136.889 25.1897C136.041 25.7771 135.033 26.0401 134.025 26.131C134.076 26.2701 134.117 26.4163 134.146 26.5688C134.149 26.5832 134.152 26.5979 134.154 26.6126L134.939 31.2936C135.093 32.0296 134.931 32.7751 134.492 33.3689C134.131 33.8573 133.637 34.1745 133.077 34.3312C132.132 34.7492 131.148 35.0618 130.14 35.2523C129.053 35.4576 127.948 35.5397 126.845 35.5397C125.034 35.5397 123.243 35.2381 121.546 34.559C119.944 33.9186 118.481 32.988 117.226 31.7502C115.97 30.5121 115.004 29.0293 114.327 27.3593C113.602 25.572 113.295 23.6568 113.295 21.7169C113.295 19.8778 113.613 18.079 114.276 16.3784C114.914 14.7463 115.815 13.2696 116.989 12.0152C118.165 10.759 119.552 9.79003 121.084 9.09778C122.716 8.36104 124.449 8.02444 126.219 8.02444C127.876 8.02444 129.484 8.37424 131 9.08604C132.447 9.76558 133.763 10.6918 134.902 11.8594C136.048 13.0345 136.956 14.4148 137.617 15.9533C137.93 16.6835 138.172 17.4351 138.342 18.2036V18.2031ZM95.924 9.22024C95.8818 9.07407 95.859 8.9186 95.8579 8.75483L95.8162 3.07284C95.8119 2.4769 96.1279 2.00269 96.5857 1.68541C96.9918 1.40406 97.4536 1.27499 97.937 1.27499H113.746C115.007 1.27499 116.14 1.7035 117.045 2.64459C117.917 3.55072 118.37 4.67587 118.37 5.97189C118.37 6.62283 118.239 7.25031 117.967 7.83403C117.711 8.38475 117.365 8.87094 116.935 9.28208C116.508 9.69079 116.021 10.0088 115.486 10.2347C114.93 10.4696 114.344 10.582 113.746 10.582H111.696V29.6113C111.696 30.3024 111.571 30.9748 111.31 31.6082C111.056 32.2251 110.695 32.7705 110.234 33.2325C109.773 33.6942 109.239 34.0506 108.652 34.3048C108.028 34.5749 107.369 34.6986 106.697 34.6986C106.037 34.6986 105.394 34.5695 104.783 34.3048C104.187 34.0462 103.65 33.6776 103.189 33.1987C102.747 32.7385 102.386 32.2088 102.117 31.616C101.832 30.9861 101.698 30.3097 101.698 29.6113V10.582H98.7251C98.7636 10.627 98.8013 10.6734 98.8381 10.7211C99.4995 11.5761 99.8075 12.5886 99.8075 13.6927V32.6043C99.8075 33.1929 99.5292 33.683 99.0778 34.0144C98.6766 34.3087 98.2127 34.4385 97.7282 34.4385H92.5556C92.1155 34.4385 91.6908 34.3324 91.3082 34.0985C91.2313 34.0513 91.1577 34 91.0884 33.9443C90.6368 34.1547 90.1674 34.3192 89.6838 34.4371C88.9428 34.6175 88.1846 34.6989 87.4247 34.6989C85.7971 34.6989 84.2106 34.3764 82.7351 33.6341C81.3678 32.9462 80.1558 32.0095 79.1444 30.8145C78.1295 29.6153 77.3765 28.2303 76.866 26.7128C76.3381 25.1447 76.0852 23.5119 76.0852 21.8477C76.0852 20.5522 76.2564 19.2738 76.6001 18.0308C76.9399 16.802 77.4414 15.6404 78.1062 14.5722C78.7687 13.5077 79.581 12.5761 80.5296 11.7932C81.5208 10.9753 82.6451 10.4097 83.8575 10.0704C84.6249 9.83867 85.4175 9.73405 86.2146 9.73405C86.8 9.73405 87.3863 9.73772 87.9714 9.75605C88.4111 9.76998 88.8551 9.80298 89.2899 9.87534C89.7036 9.94403 90.1064 10.0667 90.4892 10.2476C90.7256 10.3593 90.9593 10.4815 91.1899 10.6091C91.4367 10.4199 91.7111 10.255 91.9785 10.1032C92.0405 10.068 92.1042 10.0411 92.1684 10.0225C92.598 9.75752 93.0544 9.53874 93.5337 9.39844C94.0581 9.24517 94.5972 9.17013 95.1411 9.17013C95.2909 9.17013 95.4408 9.18015 95.5897 9.19726C95.6611 9.20557 95.7366 9.2134 95.8086 9.2134C95.8399 9.2134 95.8666 9.21486 95.8977 9.21829C95.9062 9.21926 95.9147 9.22 95.923 9.22122L95.924 9.22024ZM11.0408 20.362V32.517C11.0408 33.1056 10.7625 33.5957 10.3111 33.9269C9.89886 34.2295 9.41615 34.351 8.91986 34.351H2.9131C2.4297 34.351 1.96794 34.2222 1.56189 33.9406C1.09184 33.6148 0.79237 33.1212 0.79237 32.517V6.01491C0.79237 5.31264 0.927951 4.63408 1.20763 3.9978C1.47373 3.39257 1.83443 2.85163 2.28399 2.38401C2.74805 1.90149 3.2906 1.52946 3.88794 1.26106C4.53293 0.971157 5.21751 0.840871 5.91636 0.840871C6.7874 0.840871 7.62114 1.04938 8.38306 1.49963C9.07409 1.90785 9.67258 2.44684 10.1279 3.13615L18.3953 15.1934V6.05818C18.3953 5.3559 18.5309 4.67734 18.8106 4.04107C19.0811 3.42606 19.4542 2.88194 19.9192 2.41579C20.3844 1.94916 20.9171 1.57932 21.504 1.30799C22.1304 1.01858 22.7956 0.884381 23.4777 0.884381C24.168 0.884381 24.8395 1.02176 25.4776 1.30115C26.0758 1.56319 26.628 1.91958 27.1077 2.38255C27.5852 2.84356 27.9643 3.39208 28.2444 4.00905C28.531 4.64043 28.6852 5.31386 28.6852 6.01491V29.6541C28.6852 31.0824 28.1636 32.3019 27.1713 33.2638C26.149 34.2547 24.8972 34.6979 23.5191 34.6979C22.7378 34.6979 21.9812 34.5361 21.2616 34.2129C20.552 33.8942 19.9316 33.4212 19.4775 32.7541L11.0401 20.3618L11.0408 20.362ZM54.9235 21.7167C54.9235 23.4417 54.6351 25.1259 54.0257 26.7255C53.4413 28.2596 52.623 29.6551 51.5627 30.8678C50.4963 32.0875 49.2293 33.0376 47.8021 33.726C46.284 34.4583 44.6635 34.7847 43.0002 34.7847C41.3309 34.7847 39.7055 34.4559 38.1803 33.7275C36.7485 33.0438 35.4668 32.1049 34.3829 30.8986C33.3044 29.6981 32.4767 28.3068 31.8908 26.7688C31.2864 25.1816 30.9931 23.5155 30.9931 21.8032C30.9931 20.0782 31.2815 18.394 31.8908 16.7944C32.4767 15.2564 33.3044 13.8651 34.3829 12.6646C35.4617 11.4637 36.7331 10.5236 38.1563 9.8372C39.6744 9.10487 41.2949 8.77854 42.9583 8.77854C44.6163 8.77854 46.2348 9.09582 47.7538 9.81227C49.1824 10.4862 50.4551 11.4204 51.534 12.6211C52.6124 13.8216 53.4402 15.2129 54.026 16.7509C54.6305 18.3381 54.9237 20.0039 54.9237 21.7165L54.9235 21.7167ZM75.8198 16.4969C75.8154 16.5537 75.806 16.6106 75.7915 16.6676C75.6207 17.3337 75.3886 18.0064 75.1633 18.6536C74.832 19.605 74.4865 20.551 74.1339 21.4935C73.7264 22.5827 73.3059 23.6661 72.8747 24.7448C72.4576 25.7886 72.0325 26.8289 71.5953 27.8634C71.2411 28.7018 70.879 29.538 70.4985 30.3635C70.4099 30.5559 70.3047 30.7881 70.1896 31.0205C70.1824 31.1217 70.1592 31.2232 70.1194 31.3214C69.7515 32.2254 69.1913 32.987 68.4692 33.6045C67.6234 34.3276 66.5973 34.6111 65.5255 34.6111C64.4607 34.6111 63.3749 34.3933 62.4948 33.7221C61.6901 33.1085 61.1222 32.2704 60.7558 31.2985L54.1899 13.8844C53.9176 13.3684 53.933 12.7832 54.2534 12.2833C54.5147 11.8756 54.8995 11.6184 55.3367 11.4791L60.1564 9.1232C60.2035 9.10022 60.2454 9.08409 60.2956 9.06991C60.7482 8.94158 61.2095 8.94158 61.662 9.06991C62.1463 9.20728 62.5655 9.48912 62.8381 9.94231C62.874 10.0022 62.8995 10.057 62.9223 10.1237L65.3519 17.2232L66.8675 12.2376C67.1859 11.1904 67.7906 10.3547 68.6588 9.75287C69.5266 9.15131 70.4969 8.86532 71.5325 8.86532C72.1881 8.86532 72.8282 8.99291 73.4332 9.26253C73.9994 9.51479 74.5187 9.8592 74.9738 10.2975C75.4305 10.737 75.7949 11.2569 76.0543 11.8506C76.3147 12.4466 76.4479 13.079 76.4479 13.7358C76.4479 14.5671 76.1188 15.6439 75.82 16.4972L75.8198 16.4969ZM132.015 25.329C132.122 25.3576 132.228 25.3948 132.332 25.4412C132.869 25.6803 133.252 26.1261 133.369 26.7367C133.371 26.7448 133.372 26.7517 133.373 26.7597L134.161 31.46C134.269 31.956 134.166 32.4459 133.868 32.8487C133.603 33.2078 133.235 33.4258 132.825 33.5302C131.916 33.9367 130.971 34.2398 130 34.4234C128.961 34.6199 127.899 34.6979 126.844 34.6979C125.128 34.6979 123.434 34.4151 121.825 33.7712C120.317 33.1687 118.946 32.2975 117.764 31.1332C116.588 29.9736 115.689 28.5901 115.054 27.0264C114.372 25.3434 114.087 23.5427 114.087 21.7167C114.087 19.9856 114.384 18.2997 115.008 16.7003C115.607 15.1672 116.449 13.7854 117.551 12.6079C118.655 11.428 119.954 10.5221 121.394 9.87167C122.929 9.17869 124.554 8.86556 126.219 8.86556C127.768 8.86556 129.263 9.19017 130.679 9.85529C132.043 10.496 133.279 11.3647 134.352 12.4644C135.428 13.5671 136.275 14.8575 136.896 16.3021C137.533 17.7842 137.85 19.3503 137.85 20.9795C137.85 22.2963 137.563 23.7172 136.455 24.4852C135.487 25.1564 134.234 25.3293 133.102 25.3293H132.016L132.015 25.329ZM125.536 25.329C125.584 25.3674 125.633 25.4045 125.683 25.4405C126.174 25.7925 126.711 25.9548 127.303 25.9548C127.763 25.9548 128.236 25.8863 128.687 25.7969C129.25 25.6854 129.812 25.5659 130.372 25.4402C130.473 25.3896 130.585 25.3579 130.703 25.3498C130.726 25.342 130.75 25.3349 130.774 25.329H125.536ZM151.425 34.6541C151.18 34.7001 150.887 34.6979 150.663 34.6979C150.449 34.6979 150.188 34.6969 149.963 34.6505C148.406 34.581 146.896 34.2251 145.479 33.528C144.111 32.8546 142.893 31.934 141.869 30.758C140.846 29.5832 140.064 28.2281 139.509 26.7409C138.921 25.1621 138.656 23.4984 138.656 21.8032C138.656 20.416 138.879 19.0572 139.309 17.7475C139.727 16.474 140.297 15.2699 141.022 14.1623C142.171 12.4089 143.674 11.0983 145.525 10.2618C147.398 9.41604 149.383 9.03862 151.413 9.03862C152.544 9.03862 153.689 9.15326 154.784 9.4593C155.799 9.74285 156.777 10.1582 157.71 10.6663C158.046 10.7878 158.331 11.0071 158.548 11.3087C158.776 11.6236 158.915 11.9902 158.915 12.3906C158.915 12.4375 158.912 12.4774 158.906 12.5238C158.831 13.0682 158.707 13.616 158.573 14.1472C158.418 14.7631 158.256 15.3769 158.088 15.989C158.083 16.0083 158.078 16.0247 158.071 16.0435C157.937 16.4395 157.813 16.847 157.726 17.2576C157.66 17.5647 157.592 17.8758 157.51 18.1784C157.375 18.7605 156.976 19.1638 156.452 19.3713C155.989 19.5546 155.502 19.5722 155.023 19.4517C154.539 19.3493 154.069 19.1828 153.619 18.9665C153.094 18.7487 152.563 18.5483 152.026 18.3667C151.634 18.2342 151.201 18.1283 150.788 18.1283C150.065 18.1283 149.552 18.4151 149.166 19.0648C148.679 19.8814 148.487 20.7993 148.487 21.7595C148.487 22.2452 148.551 22.726 148.667 23.1956C148.777 23.6429 148.935 24.0782 149.158 24.4767C149.334 24.7917 149.557 25.0633 149.842 25.2716C150.079 25.4451 150.334 25.5207 150.621 25.5207C150.89 25.5207 151.169 25.4674 151.429 25.3972C151.772 25.3048 152.11 25.1919 152.442 25.0594C152.449 25.0567 152.455 25.0545 152.461 25.0518C152.825 24.9166 153.197 24.792 153.573 24.6989C153.945 24.6067 154.327 24.5664 154.709 24.5664C155.303 24.5664 155.886 24.6773 156.436 24.9174C156.96 25.1459 157.435 25.4674 157.848 25.879C158.25 26.2799 158.581 26.7458 158.825 27.2718C159.078 27.8154 159.207 28.397 159.207 29.0029C159.207 30.0643 158.941 31.0648 158.299 31.89C157.732 32.6184 157.027 33.1762 156.22 33.5717C155.422 33.9619 154.581 34.2332 153.718 34.4004C152.964 34.5466 152.192 34.6458 151.425 34.6534L151.425 34.6541ZM45.0505 21.76C45.0505 21.2303 44.9978 20.703 44.9004 20.1836C44.815 19.7284 44.6753 19.2833 44.4568 18.8797C44.2786 18.5505 44.0519 18.263 43.7616 18.0394C43.5206 17.8538 43.2534 17.7815 42.9581 17.7815C42.6765 17.7815 42.4263 17.8514 42.2042 18.0379C41.9146 18.2811 41.6844 18.584 41.501 18.923C41.2827 19.3263 41.1428 19.7715 41.0574 20.2266C40.9628 20.7309 40.9073 21.2449 40.9073 21.7595C40.9073 22.2892 40.96 22.8164 41.0574 23.3359C41.1476 23.8169 41.2901 24.2855 41.5005 24.7231C41.6704 25.0763 41.8934 25.3877 42.1862 25.6358C42.415 25.8299 42.6655 25.9113 42.9578 25.9113C43.2614 25.9113 43.543 25.8419 43.7867 25.6446C44.074 25.4121 44.2938 25.1168 44.4619 24.7781C44.6746 24.3488 44.8122 23.88 44.8992 23.405C44.9987 22.8626 45.0502 22.3122 45.0502 21.7595L45.0505 21.76ZM90.143 21.6732C90.143 21.152 90.0919 20.6336 89.9936 20.123C89.9078 19.6764 89.7763 19.233 89.5758 18.8289C89.4253 18.5253 89.2264 18.265 88.9631 18.0648C88.7211 17.881 88.4263 17.825 88.1342 17.825C87.8388 17.825 87.5716 17.8973 87.3306 18.0829C87.0391 18.3073 86.8154 18.6018 86.6412 18.9342C86.4188 19.3583 86.2666 19.8189 86.1667 20.2919C86.059 20.8025 86.0001 21.3229 86.0001 21.8465C86.0001 22.3676 86.0512 22.8863 86.1495 23.3967C86.2388 23.8616 86.3801 24.3141 86.5884 24.7348C86.7562 25.0736 86.9761 25.3689 87.2634 25.6013C87.4979 25.791 87.7564 25.868 88.0506 25.868C88.3618 25.868 88.6693 25.8049 88.9212 25.6013C89.2103 25.3676 89.4269 25.0653 89.5915 24.7231C89.8003 24.2889 89.9324 23.8194 90.0093 23.3398C90.0977 22.7891 90.143 22.2317 90.143 21.6729V21.6732ZM124.968 18.1909H127.302C127.217 18.02 127.119 17.8558 127.007 17.6989C126.778 17.3784 126.516 17.2178 126.135 17.2178C125.761 17.2178 125.482 17.3268 125.269 17.66C125.159 17.8309 125.059 18.0083 124.968 18.1909H124.968ZM75.352 20.4999C75.1934 20.9355 75.0325 21.3701 74.8702 21.804C74.4607 22.899 74.0376 23.9888 73.604 25.0736C73.1848 26.1227 72.7576 27.1682 72.3181 28.208C71.96 29.0555 71.5944 29.8993 71.21 30.7336C71.1258 30.9164 71.0422 31.0995 70.9552 31.2806C70.9322 31.4092 70.8958 31.5351 70.8468 31.6556C70.4278 32.6849 69.7877 33.5581 68.9659 34.2603C67.9777 35.1054 66.78 35.4529 65.5253 35.4529C64.2894 35.4529 63.0519 35.1836 62.0324 34.406C61.1047 33.6989 60.4425 32.7323 60.0199 31.6116L55.6115 19.9196C55.6813 20.5131 55.716 21.1127 55.716 21.7169C55.716 23.5478 55.4076 25.3425 54.7605 27.0413C54.1408 28.6681 53.2687 30.1538 52.1435 31.4407C51.0064 32.7414 49.6503 33.759 48.1299 34.4925C46.5099 35.274 44.7754 35.6265 43.0002 35.6265C41.2204 35.6265 39.482 35.2718 37.8552 34.4952C36.3321 33.768 34.9634 32.7641 33.8094 31.4796C32.6627 30.2031 31.7787 28.7187 31.1563 27.0846C30.5141 25.3984 30.2008 23.6214 30.2008 21.8035C30.2008 19.9726 30.5092 18.178 31.1563 16.4791C31.7787 14.8448 32.6627 13.3603 33.8094 12.0838C34.9576 10.8059 36.3153 9.80103 37.8285 9.07113C39.4486 8.28966 41.1831 7.93718 42.9583 7.93718C44.7259 7.93718 46.4562 8.27964 48.0754 9.04327C49.5965 9.7607 50.9573 10.7607 52.1071 12.0403C52.5148 12.4943 52.8893 12.9743 53.2307 13.4781C53.1485 12.9059 53.2717 12.3197 53.5983 11.8101C53.9507 11.2606 54.4622 10.8927 55.0522 10.6923L59.8251 8.35933C59.9117 8.31704 59.9991 8.28355 60.0912 8.2574C60.677 8.09118 61.2804 8.09118 61.8664 8.2574C62.5429 8.44928 63.126 8.85798 63.5058 9.4901C63.5721 9.60034 63.6248 9.71376 63.667 9.83672L65.3075 14.6304L66.1134 11.9795C66.4875 10.749 67.2063 9.75532 68.2256 9.04864C69.2228 8.35737 70.344 8.0242 71.5325 8.0242C72.2926 8.0242 73.0382 8.17453 73.7398 8.48717C74.3882 8.77609 74.9849 9.17282 75.506 9.67441C76.0405 10.189 76.4691 10.8015 76.773 11.4967C77.0814 12.2026 77.2403 12.9577 77.2403 13.736C77.2403 14.0066 77.2138 14.288 77.1691 14.5732C77.2582 14.4163 77.3505 14.2611 77.4458 14.1078C78.1548 12.9685 79.0288 11.966 80.0442 11.1281C81.1171 10.2427 82.3373 9.62625 83.6489 9.25788C84.4841 9.0066 85.3479 8.89172 86.2155 8.89172C86.809 8.89172 87.4026 8.89538 87.996 8.9142C88.4702 8.92911 88.9446 8.96505 89.4135 9.04327C89.8956 9.12344 90.3663 9.26742 90.8124 9.47812C90.9222 9.52995 91.0311 9.58372 91.1393 9.63921C91.2923 9.54143 91.4489 9.44952 91.6063 9.3603C91.6843 9.31606 91.7656 9.27793 91.8492 9.24688C92.3148 8.967 92.8079 8.73747 93.3244 8.58641C93.8912 8.42068 94.4752 8.33537 95.0624 8.32828L95.0239 3.07944C95.0175 2.19335 95.4673 1.45588 96.1528 0.98069C96.688 0.609632 97.3 0.433391 97.9372 0.433391H113.747C115.213 0.433391 116.545 0.946224 117.6 2.04327C118.623 3.10731 119.162 4.44928 119.162 5.97165C119.162 6.75116 119.003 7.50697 118.678 8.20655C118.377 8.85187 117.97 9.42508 117.466 9.90687C116.969 10.3821 116.4 10.7539 115.779 11.0161C115.13 11.2902 114.444 11.4231 113.746 11.4231H112.488V29.6109C112.488 30.4173 112.341 31.2056 112.036 31.945C111.739 32.6646 111.316 33.3053 110.778 33.8443C110.246 34.3769 109.628 34.7905 108.951 35.0836C108.233 35.3948 107.471 35.5397 106.697 35.5397C105.935 35.5397 105.189 35.3891 104.484 35.0836C103.793 34.7842 103.169 34.3542 102.635 33.7996C102.127 33.2716 101.711 32.6605 101.403 31.9802C101.067 31.2366 100.905 30.4349 100.905 29.6111V11.4234H100.167C100.459 12.1278 100.6 12.8917 100.6 13.6925V32.604C100.6 33.4705 100.193 34.218 99.5283 34.7062C98.9942 35.098 98.3743 35.2794 97.7282 35.2794H92.5556C92.0147 35.2794 91.4896 35.153 91.0127 34.8856C90.6375 35.0374 90.2526 35.1613 89.861 35.2567C89.0623 35.451 88.2439 35.5397 87.4249 35.5397C85.6808 35.5397 83.977 35.1892 82.396 34.3938C80.9357 33.659 79.6363 32.6536 78.5553 31.3762C77.4723 30.0963 76.6648 28.6138 76.1199 26.9954C75.5622 25.3383 75.2931 23.6057 75.2931 21.847C75.2931 21.3962 75.3127 20.947 75.352 20.5001V20.4999ZM11.8331 22.9619V32.517C11.8331 33.3835 11.4268 34.131 10.7616 34.6192C10.2158 35.0198 9.57866 35.1924 8.91986 35.1924H2.9131C2.27593 35.1924 1.66409 35.0161 1.12891 34.6451C0.434657 34.164 6.10352e-05 33.4077 6.10352e-05 32.5167V6.01467C6.10352e-05 5.19042 0.161193 4.38915 0.489902 3.64165C0.795823 2.94598 1.21315 2.31997 1.7297 1.78269C2.26419 1.22684 2.891 0.795405 3.57926 0.485946C4.32162 0.152286 5.11209 -0.000732422 5.91659 -0.000732422C6.92137 -0.000732422 7.88839 0.244195 8.7684 0.764117C9.56163 1.23271 10.249 1.85603 10.7724 2.64654L17.603 12.6082V6.05818C17.603 5.23393 17.7642 4.43266 18.0929 3.68516C18.4052 2.97458 18.8385 2.34246 19.3755 1.80396C19.907 1.27108 20.5179 0.846004 21.188 0.5363C21.9138 0.20093 22.6874 0.0427777 23.4779 0.0427777C24.2709 0.0427777 25.0464 0.201908 25.7798 0.5231C26.4625 0.822049 27.0937 1.23148 27.6409 1.75972C28.1931 2.29284 28.6341 2.92985 28.9582 3.64336C29.2964 4.38793 29.4778 5.18724 29.4778 6.01467V29.6539C29.4778 31.3192 28.862 32.7641 27.7058 33.8849C26.5353 35.0193 25.0931 35.539 23.5196 35.539C22.6338 35.539 21.7697 35.354 20.9537 34.9875C20.11 34.6087 19.3753 34.0389 18.8359 33.2466L11.8331 22.9611V22.9619ZM89.3507 21.6734C89.3507 21.2092 89.3049 20.7463 89.2174 20.2916C89.1468 19.924 89.0402 19.5544 88.8749 19.2215C88.7824 19.0352 88.664 18.8727 88.502 18.7492C88.4085 18.6783 88.2442 18.6668 88.1342 18.6668C88.0096 18.6668 87.8982 18.6854 87.796 18.7644C87.5997 18.9157 87.4507 19.1205 87.3336 19.3442C87.1485 19.6969 87.0233 20.0831 86.9402 20.4762C86.8453 20.9259 86.7926 21.3855 86.7926 21.8467C86.7926 22.3109 86.8384 22.7739 86.9259 23.2286C87.0002 23.615 87.1167 23.9936 87.2898 24.3432C87.4033 24.572 87.549 24.7746 87.7438 24.932C87.8384 25.0086 87.9332 25.0266 88.0508 25.0266C88.1721 25.0266 88.3404 25.0134 88.4415 24.932C88.6343 24.7759 88.7764 24.5686 88.8859 24.3405C89.0579 23.9831 89.1649 23.5933 89.2282 23.1987C89.309 22.6949 89.3507 22.1841 89.3507 21.6729V21.6734ZM44.2584 21.7602C44.2584 21.2862 44.2107 20.8133 44.1235 20.3483C44.0551 19.9839 43.9449 19.6226 43.7699 19.2992C43.6482 19.0741 43.4953 18.8739 43.2967 18.7209C43.1942 18.6419 43.0828 18.6233 42.9583 18.6233C42.8621 18.6233 42.7732 18.6333 42.6961 18.6981C42.4864 18.8741 42.3211 19.0973 42.1885 19.3425C42.0136 19.6659 41.9036 20.0269 41.835 20.3916C41.7505 20.8419 41.7001 21.3007 41.7001 21.76C41.7001 22.2339 41.7477 22.7069 41.835 23.1718C41.9109 23.5761 42.0297 23.9729 42.2067 24.3408C42.3246 24.5859 42.4772 24.8059 42.6809 24.9782C42.7679 25.0521 42.8476 25.0702 42.9585 25.0702C43.0794 25.0702 43.2083 25.0557 43.3075 24.9756C43.502 24.8181 43.6479 24.6155 43.7614 24.3867C43.9377 24.0308 44.0503 23.6385 44.1224 23.2449C44.2119 22.7558 44.2586 22.2584 44.2586 21.7602H44.2584Z" fill="white"/>
<path d="M27.8163 29.6546V6.01541C27.8163 5.46591 27.6982 4.93108 27.4618 4.41067C27.2254 3.89026 26.9126 3.44196 26.5233 3.06601C26.1341 2.69006 25.6751 2.38647 25.1468 2.15499C24.6185 1.92375 24.0624 1.80813 23.4781 1.80813C22.8942 1.80813 22.3518 1.92375 21.8514 2.15499C21.351 2.38623 20.906 2.69715 20.5165 3.08752C20.1273 3.47789 19.8214 3.92619 19.5988 4.43218C19.3764 4.93817 19.265 5.48034 19.265 6.05868V18.0301L9.42054 3.67295C9.05891 3.12345 8.57229 2.66806 7.96045 2.30654C7.34861 1.94501 6.66725 1.76437 5.91661 1.76437C5.30477 1.76437 4.74173 1.87999 4.22725 2.11123C3.71278 2.34247 3.26783 2.6534 2.89239 3.04377C2.51695 3.43414 2.21794 3.88244 1.99558 4.38843C1.77322 4.89442 1.6618 5.43658 1.6618 6.01492V32.517C1.6618 32.7773 1.7868 32.9941 2.03724 33.1677C2.28746 33.3412 2.57957 33.428 2.91334 33.428H8.92011C9.2815 33.428 9.58052 33.3412 9.81692 33.1677C10.0533 32.9941 10.1714 32.7773 10.1714 32.517V17.5094L20.1828 32.2134C20.5165 32.705 20.9891 33.088 21.601 33.3628C22.2128 33.6375 22.8523 33.7749 23.5198 33.7749C24.7435 33.7749 25.7653 33.3772 26.5857 32.582C27.4061 31.7869 27.8163 30.8108 27.8163 29.6541V29.6546ZM54.0541 21.717C54.0541 20.0975 53.776 18.5578 53.2199 17.0975C52.6637 15.6373 51.8919 14.3576 50.9046 13.2589C49.9174 12.1601 48.7494 11.2926 47.4007 10.6563C46.052 10.0203 44.5712 9.70204 42.9583 9.70204C41.3454 9.70204 39.8646 10.0274 38.5157 10.6781C37.167 11.3288 35.999 12.2034 35.0117 13.3021C34.0245 14.4009 33.2529 15.6805 32.6967 17.1408C32.1406 18.6011 31.8625 20.1555 31.8625 21.8037C31.8625 23.4231 32.1406 24.9629 32.6967 26.4231C33.2529 27.8834 34.0245 29.1631 35.0117 30.2618C35.999 31.3606 37.1739 32.2354 38.5366 32.8861C39.8993 33.5368 41.387 33.8621 43 33.8621C44.6129 33.8621 46.0937 33.5368 47.4424 32.8861C48.7911 32.2354 49.9521 31.3535 50.9254 30.2403C51.8986 29.1271 52.6635 27.8401 53.2197 26.3799C53.7758 24.9196 54.0539 23.3654 54.0539 21.7172L54.0541 21.717ZM45.9199 21.7602C45.9199 22.3674 45.8644 22.9746 45.753 23.582C45.6418 24.1892 45.4681 24.7314 45.2317 25.2085C44.9953 25.6857 44.6893 26.076 44.3139 26.3796C43.9385 26.6832 43.4866 26.835 42.9583 26.835C42.4577 26.835 42.0198 26.6759 41.6444 26.3579C41.269 26.0399 40.963 25.6351 40.7266 25.1435C40.4902 24.6519 40.3164 24.1098 40.2053 23.517C40.0941 22.9242 40.0384 22.3388 40.0384 21.7605C40.0384 21.211 40.0941 20.64 40.2053 20.0472C40.3164 19.4544 40.4971 18.9267 40.7476 18.464C40.9978 18.0012 41.3037 17.6182 41.6653 17.3146C42.0267 17.011 42.4579 16.8592 42.9585 16.8592C43.459 16.8592 43.897 17.0037 44.2725 17.2931C44.6479 17.5823 44.9607 17.9582 45.2109 18.4209C45.4611 18.8837 45.6421 19.4114 45.7533 20.0042C45.8644 20.5969 45.9201 21.1826 45.9201 21.761L45.9199 21.7602ZM75.5783 13.7358C75.5783 13.2154 75.4741 12.7165 75.2655 12.2393C75.0569 11.7622 74.7651 11.343 74.3896 10.9814C74.0142 10.6199 73.5833 10.3307 73.0964 10.1139C72.6098 9.8971 72.0884 9.78857 71.5323 9.78857C70.6424 9.78857 69.8429 10.0342 69.1337 10.526C68.4245 11.0176 67.9448 11.6827 67.6946 12.5212L65.4003 20.0685L62.1049 10.4393C61.9659 10.208 61.7435 10.0489 61.4376 9.96212C61.1317 9.87535 60.8258 9.87535 60.5199 9.96212L55.6394 12.3478C55.3335 12.4346 55.1111 12.5864 54.9721 12.8032C54.833 13.0201 54.833 13.2442 54.9721 13.4754L61.5628 30.9555C61.8966 31.823 62.3763 32.4952 63.002 32.9724C63.6276 33.4495 64.469 33.6881 65.5255 33.6881C66.4988 33.6881 67.2984 33.4207 67.9241 32.8856C68.5498 32.3505 69.0156 31.7072 69.3216 30.9555L69.0297 31.2591C69.1687 31.0856 69.3982 30.6519 69.718 29.958C70.0377 29.264 70.3993 28.4398 70.8026 27.4855C71.2059 26.5312 71.6299 25.4974 72.0749 24.3843C72.5198 23.2709 72.9369 22.1939 73.3262 21.1528C73.7154 20.1117 74.0561 19.1721 74.3482 18.3334C74.6401 17.4948 74.8417 16.8587 74.9531 16.4248L74.8698 16.5549C75.3426 15.2537 75.579 14.3139 75.579 13.7355L75.5783 13.7358ZM97.7282 33.5148C98.062 33.5148 98.347 33.428 98.5834 33.2545C98.8198 33.0809 98.9379 32.8641 98.9379 32.6038V13.6923C98.9379 12.7671 98.6807 11.9717 98.1663 11.3065C97.6518 10.6414 96.8662 10.2511 95.8094 10.1354C95.726 10.1354 95.6218 10.1283 95.4965 10.1139C95.3715 10.0995 95.2532 10.0922 95.1421 10.0922C94.6692 10.0922 94.2105 10.1572 93.7655 10.2875C93.3206 10.4175 92.8618 10.6417 92.389 10.9599V10.9164C92.0831 11.09 91.8467 11.2418 91.6798 11.3718C91.5129 11.5018 91.3739 11.6104 91.2627 11.6972C90.8177 11.4368 90.4423 11.2344 90.1364 11.09C89.8304 10.9455 89.5038 10.8443 89.156 10.7864C88.8084 10.7284 88.4051 10.6923 87.9464 10.6778C87.4876 10.6634 86.9105 10.6561 86.2153 10.6561C85.4645 10.6561 84.7555 10.7573 84.0879 10.9597C82.9478 11.2777 81.9398 11.7984 81.0637 12.5212C80.1879 13.2442 79.4439 14.0971 78.832 15.0802C78.2202 16.0633 77.7545 17.1332 77.4346 18.2899C77.1148 19.4466 76.9549 20.6321 76.9549 21.8465C76.9549 23.4368 77.1982 24.955 77.6848 26.4009C78.1714 27.8468 78.8735 29.112 79.7912 30.1963C80.709 31.2806 81.8144 32.1481 83.1076 32.7988C84.4008 33.4495 85.8399 33.7749 87.425 33.7749C88.148 33.7749 88.8363 33.6954 89.4898 33.5363C90.1433 33.3772 90.762 33.1242 91.346 32.7773C91.3739 32.9797 91.506 33.1533 91.7422 33.2977C91.9786 33.4422 92.2497 33.5146 92.5556 33.5146H97.7282V33.5148ZM91.0122 21.6734C91.0122 22.2806 90.9634 22.8881 90.8663 23.4952C90.7689 24.1024 90.602 24.6519 90.3656 25.1435C90.1292 25.6351 89.8233 26.0328 89.4481 26.3364C89.0727 26.64 88.6068 26.7918 88.0506 26.7918C87.5502 26.7918 87.1122 26.64 86.7367 26.3364C86.3613 26.0328 86.0554 25.6424 85.8189 25.1653C85.5826 24.6881 85.4088 24.1604 85.2976 23.582C85.1864 23.0037 85.1307 22.4253 85.1307 21.847C85.1307 21.2687 85.1933 20.6832 85.3183 20.0902C85.4433 19.4974 85.6311 18.9624 85.8813 18.4855C86.1315 18.0083 86.4444 17.6253 86.8198 17.3361C87.1952 17.0469 87.6333 16.9022 88.1337 16.9022C88.662 16.9022 89.107 17.0396 89.4686 17.3144C89.83 17.5891 90.1221 17.9506 90.3445 18.3987C90.5668 18.847 90.7337 19.3601 90.8451 19.9384C90.9563 20.5168 91.012 21.0951 91.012 21.6734H91.0122ZM117.5 5.9719C117.5 4.93084 117.146 4.04157 116.437 3.30434C115.728 2.56711 114.831 2.19825 113.746 2.19825H97.937C97.6032 2.19825 97.3113 2.28503 97.0611 2.45858C96.8109 2.63213 96.6857 2.83453 96.6857 3.06577L96.7273 8.74775C96.7273 9.00808 96.8523 9.2249 97.1028 9.39845C97.353 9.572 97.6451 9.65878 97.9789 9.65878H102.567V29.6111C102.567 30.1895 102.679 30.7243 102.901 31.2159C103.124 31.7074 103.423 32.1484 103.798 32.5388C104.173 32.9291 104.611 33.2327 105.112 33.4495C105.612 33.6664 106.141 33.7749 106.697 33.7749C107.281 33.7749 107.823 33.6664 108.324 33.4495C108.824 33.2327 109.262 32.9362 109.638 32.5603C110.013 32.1843 110.305 31.7434 110.514 31.2374C110.722 30.7314 110.826 30.1892 110.826 29.6109V9.65853H113.746C114.247 9.65853 114.72 9.56442 115.165 9.37669C115.609 9.18872 116.006 8.92839 116.353 8.59596C116.701 8.26327 116.979 7.8729 117.188 7.42485C117.396 6.97655 117.5 6.49231 117.5 5.9719ZM136.981 20.9795C136.981 19.4759 136.689 18.0445 136.105 16.6854C135.521 15.3263 134.735 14.1408 133.748 13.1288C132.761 12.1166 131.62 11.307 130.327 10.6998C129.034 10.0927 127.664 9.78882 126.218 9.78882C124.605 9.78882 123.111 10.0997 121.734 10.7214C120.358 11.343 119.169 12.189 118.168 13.2586C117.166 14.3285 116.381 15.5938 115.811 17.054C115.24 18.5143 114.956 20.0685 114.956 21.717C114.956 23.5388 115.255 25.187 115.852 26.6617C116.45 28.1364 117.285 29.4016 118.355 30.4571C119.426 31.5126 120.684 32.3295 122.13 32.9079C123.576 33.4862 125.148 33.7754 126.844 33.7754C127.928 33.7754 128.93 33.6886 129.847 33.515C130.765 33.3415 131.669 33.0523 132.559 32.6475C132.837 32.5896 133.045 32.4669 133.184 32.2789C133.323 32.0909 133.365 31.8812 133.309 31.65L132.517 26.922C132.461 26.6329 132.288 26.4234 131.995 26.2931C131.703 26.1631 131.363 26.1413 130.973 26.2281C130.918 26.2569 130.848 26.2713 130.765 26.2713C130.737 26.2713 130.723 26.2858 130.723 26.3146C130.723 26.3146 130.709 26.3146 130.682 26.3146C130.042 26.4591 129.43 26.5894 128.846 26.705C128.262 26.8206 127.748 26.8785 127.303 26.8785C126.524 26.8785 125.822 26.6544 125.196 26.2063C124.571 25.758 124.091 25.1582 123.757 24.4063H133.101C134.352 24.4063 135.312 24.175 135.979 23.7123C136.647 23.2496 136.98 22.3388 136.98 20.9797L136.981 20.9795ZM126.135 16.2951C126.775 16.2951 127.296 16.5769 127.699 17.1408C128.103 17.7047 128.374 18.3625 128.513 19.1144H123.674C123.896 18.3625 124.188 17.7047 124.55 17.1408C124.911 16.5769 125.44 16.2951 126.135 16.2951H126.135ZM158.338 29.0039C158.338 28.5412 158.241 28.1002 158.046 27.681C157.851 27.2618 157.587 26.8859 157.254 26.5532C156.92 26.2205 156.537 25.9604 156.107 25.7724C155.676 25.5845 155.21 25.4906 154.709 25.4906C154.375 25.4906 154.062 25.5268 153.771 25.5991C153.479 25.6715 153.138 25.7798 152.749 25.9245C152.387 26.0689 152.019 26.1919 151.643 26.2931C151.268 26.3943 150.927 26.4449 150.621 26.4449C150.148 26.4449 149.724 26.3075 149.349 26.0328C148.973 25.758 148.661 25.3965 148.41 24.9484C148.16 24.5001 147.965 23.9941 147.826 23.4302C147.687 22.8663 147.618 22.3097 147.618 21.7602C147.618 20.5456 147.889 19.483 148.431 18.5722C148.974 17.6612 149.759 17.2058 150.788 17.2058C151.233 17.2058 151.734 17.2999 152.29 17.4877C152.846 17.6756 153.402 17.8854 153.958 18.1166C154.376 18.319 154.793 18.4635 155.21 18.5505C155.544 18.6373 155.856 18.6228 156.148 18.507C156.44 18.3914 156.614 18.2034 156.67 17.9431C156.725 17.7407 156.795 17.4442 156.878 17.0538C156.961 16.6634 157.087 16.2225 157.254 15.7309C157.42 15.1237 157.58 14.5163 157.733 13.9091C157.886 13.3019 157.99 12.7957 158.046 12.3909C158.046 12.2173 157.984 12.044 157.859 11.8705C157.734 11.6969 157.574 11.5813 157.379 11.5236C156.433 11.0032 155.495 10.6126 154.563 10.3525C153.632 10.0922 152.582 9.96212 151.414 9.96212C149.412 9.96212 147.562 10.3452 145.866 11.1115C144.169 11.8778 142.793 13.0707 141.736 14.6898C141.069 15.7018 140.533 16.8223 140.13 18.0513C139.727 19.2804 139.525 20.5309 139.525 21.8032C139.525 23.4515 139.79 24.9841 140.318 26.4009C140.846 27.8179 141.576 29.0611 142.508 30.1313C143.439 31.2012 144.552 32.0543 145.845 32.6903C147.138 33.3266 148.549 33.6734 150.079 33.7314C150.162 33.7602 150.357 33.7749 150.663 33.7749C151.024 33.7749 151.247 33.7605 151.33 33.7314C151.997 33.7314 152.741 33.6519 153.562 33.4928C154.382 33.3339 155.147 33.0807 155.856 32.7338C156.565 32.3867 157.156 31.9096 157.629 31.3024C158.102 30.6952 158.338 29.9289 158.338 29.0034V29.0039Z" fill="white"/>
<path d="M43.9034 22.7692C43.8864 22.8093 43.2331 24.407 42.7898 26.6805L42.8494 26.7712L43.185 26.7849C43.6187 24.5578 44.2593 22.9883 44.2724 22.9555C44.7477 22.0342 45.2498 21.6091 45.6846 21.7617C46.49 22.042 47.1152 24.1511 46.7317 26.6984C46.714 26.7629 45.2208 32.5478 47.4186 40.1342C46.9042 39.7081 46.3328 39.1907 45.6842 38.5409C44.3249 37.1784 43.5478 35.5466 43.1486 33.8592C43.0117 33.8663 42.8715 33.8687 42.7308 33.8673C43.138 35.6575 43.9515 37.3967 45.3994 38.848C46.2633 39.7147 46.9932 40.3486 47.6345 40.8472C47.8673 41.5845 48.1357 42.3368 48.443 43.1C50.6882 48.6693 53.4608 51.1195 54.5989 50.747C54.7796 50.6881 55.141 50.4808 55.1274 49.7702C55.1249 49.6395 55.1101 49.4928 55.0786 49.3263C54.9248 48.0988 53.6466 45.2608 53.0826 44.4466L52.9491 44.6094L52.8281 44.8079C53.1552 45.2799 55.5042 50.0034 54.4757 50.34C53.6296 50.6165 51.0167 48.3789 48.8223 42.935C48.596 42.375 48.3923 41.8203 48.2082 41.2745C48.7574 41.6678 49.2438 41.969 49.7044 42.254C50.1362 42.5214 50.5549 42.7805 50.9923 43.0946L51.0103 42.5928C50.6413 42.3378 50.2824 42.1146 49.9146 41.8873C49.3368 41.5297 48.719 41.1472 47.9837 40.5854C45.5744 32.8436 47.1106 26.8753 47.1332 26.789C47.5268 24.1848 46.9355 21.748 45.8151 21.3566C45.4408 21.2249 44.6946 21.2327 43.9034 22.769V22.7692Z" fill="white"/>
</g>
<defs>
<clipPath id="clip0_27_208">
<rect width="160" height="61" fill="white"/>
</clipPath>
</defs>
</svg>
