<svg width="75" height="32" viewBox="0 0 75 32" fill="none" xmlns="http://www.w3.org/2000/svg">
<path fill-rule="evenodd" clip-rule="evenodd" d="M23.4106 18.7013H24.9303C25.1676 18.5443 25.4483 18.4642 25.7425 18.4897L28.174 18.7013H55.5014C56.1278 18.7013 56.9715 19.2161 57.4879 19.8861H59.6037C60.3288 19.8861 61.07 20.5496 61.2508 21.3606L61.3266 21.7002C61.8181 21.9752 62.1397 22.565 62.0946 23.2132L61.9922 24.6848L62.5663 27.259C62.7357 28.0187 62.3558 28.649 61.7111 28.7257L61.6631 29.4161C61.6314 29.8713 61.4251 30.2667 61.1238 30.5266C60.8448 30.9089 60.4085 31.1384 59.9379 31.0975L32.7731 28.7335H28.2253C27.8375 28.7335 27.4452 28.5437 27.1364 28.2429L24.8642 28.0452C24.1018 27.9789 23.5265 27.2268 23.5858 26.3738L23.9202 21.5656L23.0228 20.12C22.5384 19.3397 22.7128 18.7012 23.4105 18.7012L23.4106 18.7013ZM26.5916 25.5187C26.5842 25.5939 26.6018 25.6605 26.6446 25.7186C26.6873 25.7766 26.7421 25.8083 26.8089 25.8135C26.8757 25.8187 26.934 25.7958 26.9839 25.7448C27.0338 25.6939 27.0626 25.6308 27.07 25.5556L27.2171 24.0821L27.9792 24.1411C28.1572 24.1549 28.3285 24.1334 28.4929 24.0767C28.6575 24.0198 28.8042 23.9343 28.9334 23.82C29.0625 23.7058 29.169 23.5655 29.2529 23.3992C29.3367 23.2331 29.389 23.0453 29.41 22.8363C29.4204 22.7318 29.4224 22.6371 29.4159 22.5524C29.4 22.3743 29.3601 22.2121 29.2962 22.0661C29.2324 21.92 29.1497 21.7935 29.0482 21.6867C28.9468 21.5798 28.8282 21.4949 28.6924 21.4316C28.5567 21.3685 28.411 21.3308 28.2552 21.3189C28.0513 21.3031 27.845 21.2912 27.6365 21.2836C27.4281 21.276 27.223 21.2517 27.0216 21.2108L26.5917 25.5187H26.5916ZM27.277 23.5939L27.4616 21.744L28.1904 21.8004C28.3053 21.8093 28.4105 21.8417 28.5058 21.8976C28.6012 21.9534 28.6816 22.026 28.7476 22.1154C28.8134 22.2047 28.8629 22.3075 28.8962 22.4239C28.9294 22.5402 28.9395 22.6631 28.9266 22.7928C28.9141 22.9181 28.8808 23.0356 28.827 23.1452C28.773 23.2548 28.7039 23.3484 28.6196 23.4261C28.5352 23.5039 28.4406 23.5629 28.3356 23.6032C28.2307 23.6435 28.1226 23.6594 28.0114 23.6508L27.2771 23.594L27.277 23.5939ZM29.8807 24.5221L31.6831 24.6616C31.7832 24.6694 31.8593 24.6563 31.9112 24.6224C31.9632 24.5886 31.9953 24.511 32.0074 24.3897C32.0278 24.1849 32.0181 23.9819 31.9784 23.7808C31.9387 23.5798 31.8717 23.3987 31.7776 23.2376C31.6834 23.0765 31.5623 22.9429 31.414 22.8367C31.2658 22.7304 31.0934 22.6697 30.8968 22.6545C30.6891 22.6385 30.498 22.6721 30.3234 22.7554C30.1488 22.8389 29.995 22.9554 29.8624 23.1053C29.7297 23.255 29.6216 23.431 29.5378 23.633C29.4541 23.8351 29.4015 24.0449 29.3798 24.2622C29.3565 24.4962 29.3648 24.7212 29.4049 24.9371C29.445 25.153 29.5165 25.3449 29.6193 25.513C29.7221 25.681 29.8541 25.8187 30.0153 25.9259C30.1765 26.0332 30.3683 26.0954 30.5908 26.1127C30.7281 26.1233 30.855 26.1152 30.9716 26.0885C31.0883 26.0617 31.2126 26.0239 31.3445 25.9752L31.2808 25.5469C31.1809 25.5729 31.0778 25.5955 30.9713 25.6146C30.8647 25.6337 30.7596 25.6392 30.6557 25.6312C30.5296 25.6215 30.4156 25.5842 30.3136 25.5194C30.2118 25.4547 30.1265 25.3722 30.058 25.2721C29.9895 25.1721 29.9394 25.0566 29.9076 24.9255C29.8758 24.7946 29.8668 24.6602 29.8806 24.5222L29.8807 24.5221ZM29.911 24.1073C29.9387 23.9789 29.9776 23.8513 30.0276 23.7246C30.0777 23.5979 30.1392 23.4869 30.2122 23.3913C30.2853 23.2959 30.3732 23.2205 30.4758 23.1653C30.5785 23.1101 30.7003 23.0879 30.8413 23.0987C30.9636 23.1082 31.0698 23.149 31.1598 23.2214C31.2498 23.2936 31.3231 23.3836 31.3796 23.4912C31.4361 23.5988 31.4766 23.7177 31.5009 23.8481C31.5253 23.9785 31.533 24.1066 31.5242 24.2322L29.911 24.1073ZM32.1869 26.1855L32.6604 26.2158L32.8331 24.4851C32.8544 24.2719 32.892 24.1011 32.9459 23.9725C32.9998 23.8439 33.0605 23.7423 33.1277 23.6674C33.1949 23.5926 33.2669 23.537 33.3434 23.5009C33.4199 23.4647 33.4894 23.4332 33.5517 23.4065C33.6142 23.3798 33.6677 23.3492 33.7123 23.3147C33.7569 23.2802 33.7826 23.2274 33.7898 23.1564C33.7981 23.0728 33.7781 23.0017 33.7298 22.9433C33.6814 22.8847 33.6201 22.8527 33.546 22.8469C33.483 22.8421 33.42 22.855 33.3572 22.886C33.2943 22.9169 33.2359 22.9587 33.1821 23.0115C33.1282 23.0642 33.0795 23.1225 33.0357 23.1866C32.9918 23.2506 32.9576 23.3133 32.9328 23.3746C32.942 23.3205 32.9509 23.2675 32.9599 23.2156C32.9689 23.1636 32.976 23.1104 32.9814 23.0561C32.9885 22.985 32.9681 22.9265 32.9204 22.8808C32.8727 22.8349 32.8209 22.8099 32.7654 22.8056C32.7023 22.8008 32.6442 22.8215 32.591 22.868C32.5378 22.9144 32.5074 22.9752 32.4999 23.0505L32.187 26.1857L32.1869 26.1855ZM33.5263 25.7962C33.5772 25.8845 33.643 25.9654 33.7235 26.0389C33.804 26.1127 33.8912 26.1751 33.9851 26.2267C34.0789 26.2782 34.1757 26.3194 34.2754 26.3502C34.3751 26.3811 34.4732 26.4002 34.5696 26.4077C34.6957 26.4175 34.8256 26.4075 34.9593 26.3778C35.0931 26.3482 35.2169 26.2967 35.3307 26.2233C35.4445 26.15 35.5409 26.0553 35.6197 25.9392C35.6985 25.8231 35.7461 25.6836 35.7623 25.5206C35.7799 25.345 35.7549 25.1925 35.6874 25.063C35.62 24.9334 35.5321 24.8214 35.4238 24.7266C35.3156 24.6318 35.1948 24.5498 35.0616 24.4806C34.9283 24.4113 34.8063 24.3429 34.6953 24.2752C34.5842 24.2077 34.492 24.1405 34.4183 24.0737C34.3446 24.0069 34.3123 23.9275 34.3215 23.8356C34.3289 23.7603 34.3504 23.6957 34.3857 23.6414C34.421 23.5873 34.4647 23.5432 34.5166 23.5094C34.5686 23.4755 34.626 23.4526 34.6888 23.4406C34.7517 23.4287 34.8128 23.425 34.8721 23.4295C34.9686 23.4371 35.0559 23.4606 35.1341 23.5004C35.2123 23.5402 35.2828 23.5835 35.3454 23.6305C35.408 23.6774 35.4635 23.7196 35.5121 23.7572C35.5606 23.7946 35.6053 23.815 35.6462 23.8181C35.7092 23.8229 35.7627 23.8018 35.8066 23.7546C35.8506 23.7075 35.8757 23.6525 35.882 23.5898C35.8916 23.4936 35.86 23.408 35.7871 23.3329C35.7143 23.2577 35.6255 23.193 35.5206 23.1385C35.4157 23.0841 35.3088 23.0421 35.1996 23.0126C35.0904 22.9831 35.0025 22.9657 34.9357 22.9605C34.817 22.9513 34.6963 22.962 34.5737 22.9926C34.451 23.0232 34.3376 23.0733 34.2335 23.1432C34.1293 23.2131 34.041 23.3021 33.9686 23.4102C33.8962 23.5183 33.8524 23.6477 33.8374 23.7981C33.8206 23.9654 33.8466 24.1073 33.9154 24.2243C33.9841 24.3413 34.073 24.443 34.1821 24.5293C34.2912 24.6157 34.4126 24.6913 34.5463 24.7566C34.6798 24.8216 34.8021 24.8891 34.9129 24.9587C35.0236 25.0283 35.1152 25.1039 35.1874 25.1852C35.2596 25.2667 35.2899 25.3659 35.2783 25.4829C35.2699 25.5665 35.2442 25.6372 35.201 25.6949C35.1578 25.7526 35.1063 25.8013 35.0463 25.8409C34.9863 25.8804 34.9209 25.908 34.8502 25.9237C34.7795 25.9393 34.7126 25.9446 34.6496 25.9397C34.5532 25.9322 34.4708 25.9153 34.4024 25.8891C34.334 25.8627 34.2711 25.8284 34.2137 25.786C34.1563 25.7436 34.0994 25.6951 34.0433 25.6401C33.9871 25.5852 33.9267 25.5257 33.8622 25.4617L33.5261 25.7959L33.5263 25.7962ZM36.2053 24.7903C36.1837 25.0078 36.1911 25.2231 36.2278 25.4366C36.2644 25.6501 36.331 25.8437 36.4276 26.0176C36.5242 26.1915 36.6491 26.3349 36.8022 26.4479C36.9554 26.5608 37.1377 26.6255 37.3491 26.6419C37.5568 26.6579 37.7472 26.6222 37.9204 26.5344C38.0936 26.4467 38.244 26.3247 38.3718 26.1681C38.4995 26.0116 38.6026 25.831 38.6809 25.6265C38.7592 25.4219 38.8091 25.213 38.8303 24.9999C38.852 24.7824 38.8436 24.5681 38.8049 24.3566C38.7661 24.1451 38.6992 23.9545 38.6041 23.7849C38.5089 23.6153 38.3846 23.4752 38.2312 23.3642C38.0777 23.2534 37.8972 23.1899 37.6896 23.1738C37.4819 23.1578 37.2916 23.1925 37.1186 23.2781C36.9456 23.3637 36.7955 23.4827 36.6682 23.635C36.5409 23.7874 36.4372 23.9647 36.3573 24.167C36.2773 24.3694 36.2266 24.5771 36.2053 24.7903ZM36.7054 24.8354C36.7192 24.6975 36.7482 24.5565 36.7924 24.4124C36.8367 24.2684 36.8974 24.1373 36.9747 24.019C37.0519 23.9006 37.1455 23.8057 37.2553 23.7342C37.3653 23.6628 37.4925 23.6326 37.6372 23.6438C37.7855 23.6552 37.9077 23.7037 38.0038 23.7891C38.1 23.8745 38.1754 23.9793 38.2303 24.1037C38.2851 24.228 38.32 24.3655 38.3349 24.5162C38.3498 24.6668 38.3501 24.8133 38.3358 24.9554C38.3213 25.1017 38.2916 25.249 38.2469 25.3971C38.2023 25.5453 38.1413 25.6785 38.064 25.7969C37.9868 25.9152 37.8915 26.0089 37.7781 26.078C37.6647 26.1472 37.532 26.1759 37.3799 26.164C37.2353 26.1528 37.1159 26.1037 37.0219 26.0163C36.9278 25.929 36.8555 25.8202 36.8051 25.6899C36.7546 25.5596 36.7219 25.4191 36.707 25.2684C36.6921 25.1177 36.6915 24.9734 36.7054 24.8354ZM39.0242 26.7084L39.4916 26.7445L39.705 24.6062C39.7158 24.4975 39.7436 24.3964 39.7885 24.303C39.8334 24.2095 39.8909 24.1287 39.9613 24.0604C40.0316 23.9921 40.1116 23.9403 40.201 23.9052C40.2905 23.87 40.3834 23.8561 40.4798 23.8635C40.5763 23.8711 40.665 23.9 40.7458 23.9504C40.8267 24.001 40.896 24.0653 40.9536 24.1435C41.0112 24.2216 41.0536 24.3113 41.0809 24.4124C41.1082 24.5135 41.1164 24.6184 41.1055 24.7271L40.9135 26.6522C40.9064 26.7233 40.9225 26.7866 40.9618 26.8423C41.0011 26.8981 41.0522 26.9284 41.1154 26.9332C41.1821 26.9384 41.2413 26.9165 41.2929 26.868C41.3444 26.8193 41.374 26.7573 41.3814 26.6821L41.5735 24.757C41.5918 24.5731 41.5838 24.4018 41.5491 24.2433C41.5145 24.0848 41.4555 23.9454 41.3723 23.8252C41.289 23.705 41.1837 23.6084 41.0564 23.5353C40.9292 23.4623 40.7822 23.4193 40.6152 23.4064C40.4632 23.3947 40.312 23.4208 40.1617 23.485C40.0114 23.5492 39.8865 23.6491 39.7871 23.7847C39.7917 23.7387 39.7967 23.6885 39.8021 23.6342C39.8075 23.5798 39.806 23.5303 39.7974 23.4853C39.7887 23.4404 39.7702 23.4021 39.7416 23.3704C39.713 23.3387 39.669 23.3205 39.6096 23.3159C39.5428 23.3107 39.4827 23.3324 39.4293 23.381C39.3759 23.4295 39.3454 23.4914 39.3379 23.5666L39.0244 26.7081L39.0242 26.7084ZM44.1481 24.1224C44.0589 23.9681 43.9447 23.8475 43.8058 23.761C43.6668 23.6745 43.5157 23.6248 43.3525 23.6122C43.1448 23.5962 42.9561 23.6322 42.7867 23.7201C42.6172 23.8081 42.4697 23.9283 42.3443 24.0807C42.2189 24.2332 42.1172 24.4096 42.0393 24.61C41.9614 24.8104 41.9118 25.0172 41.8905 25.2304C41.8688 25.4478 41.8754 25.662 41.9105 25.8733C41.9454 26.0845 42.0086 26.2758 42.0998 26.4472C42.1911 26.6185 42.3124 26.7606 42.4637 26.8734C42.615 26.9862 42.7963 27.0508 43.0077 27.0672C43.182 27.0806 43.3466 27.0503 43.5017 26.9758C43.6567 26.9015 43.7873 26.7819 43.8934 26.6175L43.8451 27.1003L44.318 27.1369L44.6334 23.9766C44.64 23.9096 44.6248 23.8474 44.5875 23.7897C44.5503 23.732 44.5001 23.7008 44.4371 23.6959C44.3703 23.6907 44.3189 23.7005 44.2828 23.725C44.2467 23.7495 44.2201 23.7823 44.2029 23.8231C44.1858 23.8639 44.1737 23.9104 44.1666 23.9625C44.1596 24.0147 44.1532 24.0678 44.1478 24.1221L44.1481 24.1224ZM42.3918 25.2629C42.4064 25.1166 42.4369 24.9704 42.4832 24.8245C42.5295 24.6785 42.5921 24.5475 42.671 24.4314C42.7498 24.3153 42.8467 24.2238 42.9619 24.1569C43.0769 24.09 43.2105 24.0624 43.3625 24.0742C43.5183 24.0863 43.6435 24.1327 43.7382 24.2138C43.8329 24.2948 43.9051 24.3953 43.9548 24.515C44.0045 24.6347 44.0341 24.7686 44.0436 24.9168C44.0531 25.0649 44.0507 25.2101 44.0366 25.3523C44.0207 25.5111 43.9938 25.6681 43.956 25.8231C43.9181 25.9782 43.8622 26.116 43.7885 26.2367C43.7148 26.3573 43.6202 26.4532 43.5047 26.5243C43.3893 26.5955 43.248 26.6245 43.0812 26.6116C42.9292 26.5998 42.8042 26.5501 42.7065 26.4625C42.6087 26.3748 42.5345 26.267 42.4836 26.1388C42.4329 26.0106 42.4012 25.8691 42.3887 25.7144C42.3761 25.5597 42.3771 25.4092 42.3917 25.2629H42.3918ZM44.6866 27.153L45.1544 27.1829L45.6156 22.5616C45.6231 22.4862 45.6073 22.4198 45.5682 22.362C45.5291 22.3042 45.4762 22.2728 45.4095 22.2676C45.3427 22.2624 45.2844 22.2853 45.2345 22.3362C45.1845 22.3871 45.1558 22.4503 45.1484 22.5254L44.6866 27.1531V27.153ZM45.5216 27.2113L45.9889 27.2475L46.3025 24.106C46.3092 24.0392 46.2938 23.9768 46.2566 23.9193C46.2194 23.8616 46.1692 23.8304 46.1062 23.8255C46.0394 23.8203 45.9795 23.8399 45.9265 23.8843C45.8736 23.9286 45.843 23.9905 45.8352 24.0699L45.5217 27.2114L45.5216 27.2113ZM45.963 23.0686C45.9572 23.1272 45.9725 23.1799 46.0089 23.227C46.0453 23.2741 46.0895 23.2996 46.1414 23.3036C46.197 23.3079 46.2465 23.2896 46.2898 23.2487C46.3331 23.2079 46.3579 23.156 46.3642 23.0933C46.3704 23.0306 46.3552 22.9768 46.3187 22.9318C46.2821 22.8868 46.2377 22.8624 46.1858 22.8584C46.1265 22.8538 46.0761 22.8719 46.0347 22.913C45.9932 22.954 45.9693 23.0059 45.9631 23.0686H45.963ZM48.1724 24.5224L46.4343 26.8839C46.3993 26.9359 46.3792 26.9871 46.3742 27.0372C46.3671 27.1083 46.3827 27.1664 46.4213 27.2115C46.4598 27.2566 46.5087 27.2815 46.568 27.2861L48.3648 27.4251C48.4279 27.43 48.4866 27.4124 48.541 27.3725C48.5955 27.3324 48.6264 27.2749 48.6339 27.1995C48.641 27.1284 48.6217 27.069 48.5759 27.0213C48.5302 26.9735 48.4759 26.9472 48.4128 26.9423L47.0499 26.8368L48.7941 24.4695C48.8111 24.4498 48.8255 24.4266 48.8375 24.4002C48.8495 24.3737 48.8569 24.3459 48.8598 24.3166C48.8669 24.2455 48.8521 24.1886 48.8153 24.1457C48.7785 24.1028 48.7285 24.079 48.6655 24.0741L46.7463 23.9255L46.698 24.4083L48.1722 24.5225L48.1724 24.5224ZM50.9792 24.6512C50.89 24.4968 50.7758 24.3763 50.6368 24.2898C50.4979 24.2032 50.3468 24.1536 50.1835 24.141C49.9758 24.125 49.7873 24.161 49.6178 24.2489C49.4483 24.3369 49.3008 24.457 49.1754 24.6095C49.0499 24.762 48.9483 24.9384 48.8704 25.1388C48.7925 25.3392 48.7429 25.546 48.7216 25.7591C48.6999 25.9766 48.7066 26.1908 48.7416 26.4021C48.7765 26.6133 48.8396 26.8046 48.9309 26.976C49.0222 27.1473 49.1435 27.2894 49.2948 27.4022C49.446 27.515 49.6274 27.5796 49.8388 27.596C50.0131 27.6094 50.1777 27.5791 50.3328 27.5046C50.4878 27.4303 50.6184 27.3109 50.7246 27.1463L50.6763 27.6291L51.1492 27.6657L51.4645 24.5054C51.4712 24.4384 51.4559 24.3762 51.4187 24.3185C51.3815 24.2608 51.3313 24.2296 51.2683 24.2247C51.2015 24.2195 51.1501 24.2293 51.114 24.2538C51.0779 24.2783 51.0513 24.3111 51.0341 24.3519C51.017 24.3927 51.0049 24.4392 50.9978 24.4913C50.9906 24.5434 50.9845 24.5966 50.979 24.6509L50.9792 24.6512ZM49.2229 25.7917C49.2375 25.6454 49.268 25.4993 49.3143 25.3533C49.3607 25.2073 49.4233 25.0763 49.5021 24.9602C49.5809 24.8441 49.6778 24.7526 49.7929 24.6857C49.908 24.6188 50.0416 24.5911 50.1936 24.603C50.3494 24.6151 50.4746 24.6615 50.5692 24.7426C50.6639 24.8237 50.7361 24.9241 50.7859 25.0437C50.8356 25.1634 50.8652 25.2974 50.8747 25.4456C50.8841 25.5937 50.8818 25.7389 50.8676 25.881C50.8518 26.0399 50.8249 26.1968 50.787 26.3519C50.7492 26.507 50.6934 26.6448 50.6196 26.7654C50.5459 26.8861 50.4512 26.982 50.3358 27.0531C50.2203 27.1242 50.0791 27.1533 49.9123 27.1404C49.7603 27.1286 49.6353 27.0789 49.5375 26.9912C49.4398 26.9036 49.3656 26.7958 49.3147 26.6676C49.264 26.5394 49.2323 26.3979 49.2198 26.2432C49.2072 26.0885 49.2082 25.938 49.2228 25.7916L49.2229 25.7917ZM51.6792 26.0071C51.6595 26.2036 51.6628 26.3966 51.6887 26.5861C51.7146 26.7755 51.7653 26.9512 51.8407 27.1129C51.9161 27.2746 52.0171 27.414 52.1437 27.5312C52.2702 27.6485 52.4227 27.7308 52.6011 27.7784C52.5837 27.8023 52.5536 27.8421 52.5106 27.8978C52.4677 27.9534 52.4245 28.0112 52.3813 28.071C52.3379 28.1309 52.2985 28.1888 52.263 28.245C52.2275 28.3012 52.2083 28.344 52.2054 28.3733C52.2 28.4277 52.2121 28.4749 52.2418 28.5152C52.2714 28.5554 52.3103 28.5775 52.3585 28.5812C52.3918 28.5838 52.4281 28.5771 52.467 28.5611C52.506 28.5452 52.5364 28.5211 52.5583 28.4892L53.0172 27.8234C53.0696 27.8232 53.1328 27.8176 53.2067 27.8065C53.2807 27.7954 53.3518 27.7755 53.42 27.7472C53.4882 27.7187 53.5482 27.6803 53.5998 27.6316C53.6514 27.5829 53.6811 27.5189 53.689 27.4394C53.6953 27.3767 53.6795 27.3196 53.6417 27.2683C53.6038 27.2169 53.5552 27.1889 53.4959 27.1844C53.4625 27.1818 53.4225 27.1892 53.3759 27.2067C53.3293 27.2242 53.2789 27.2423 53.2247 27.2613C53.1706 27.2803 53.1146 27.298 53.0568 27.3147C52.9991 27.3313 52.9425 27.3375 52.8868 27.333C52.7459 27.3222 52.6284 27.273 52.5343 27.1857C52.4402 27.0985 52.365 26.9915 52.3084 26.8649C52.2519 26.7384 52.2143 26.5996 52.1958 26.4487C52.1772 26.2977 52.1746 26.1553 52.1879 26.0214C52.2025 25.8751 52.2338 25.7302 52.2818 25.5863C52.3298 25.4426 52.3938 25.3159 52.4739 25.2062C52.5539 25.0965 52.6513 25.0094 52.7663 24.9445C52.8811 24.8797 53.0145 24.8532 53.1666 24.8649C53.2815 24.8738 53.3892 24.9095 53.4894 24.972C53.5896 25.0345 53.6851 25.0988 53.7757 25.1648L54.0476 24.7435C53.978 24.6917 53.9117 24.6445 53.8487 24.6017C53.7857 24.559 53.722 24.5225 53.6578 24.4922C53.5936 24.462 53.5261 24.4367 53.4552 24.4165C53.3843 24.3963 53.3045 24.3827 53.2155 24.3758C52.9966 24.3589 52.7982 24.391 52.6201 24.4719C52.4419 24.5529 52.2864 24.6694 52.1536 24.8213C52.0207 24.9731 51.9142 25.1514 51.834 25.3557C51.7538 25.5601 51.7022 25.7773 51.6793 26.0073L51.6792 26.0071ZM55.2066 23.7462C55.1435 23.7414 55.0884 23.7614 55.0409 23.8061C54.9934 23.8508 54.9662 23.9088 54.9591 23.9799C54.952 24.051 54.9685 24.1112 55.0083 24.1606C55.0482 24.21 55.0997 24.2371 55.1628 24.2421L56.3304 24.3387C56.3934 24.3435 56.4506 24.3238 56.5018 24.2793C56.5529 24.2348 56.5821 24.177 56.5892 24.106C56.5963 24.0349 56.58 23.9736 56.5403 23.9221C56.5006 23.8706 56.4492 23.8423 56.3862 23.8374L55.2069 23.7461L55.2066 23.7462ZM56.4308 25.0732C56.3415 24.9189 56.2274 24.7983 56.0884 24.7118C55.9494 24.6253 55.7984 24.5756 55.6352 24.563C55.4275 24.547 55.2389 24.5829 55.0695 24.6709C54.9 24.7589 54.7525 24.8791 54.6271 25.0315C54.5016 25.184 54.4 25.3604 54.3221 25.5608C54.2442 25.7612 54.1945 25.9681 54.1733 26.1812C54.1516 26.3986 54.1583 26.6128 54.1932 26.8241C54.2282 27.0354 54.2913 27.2267 54.3826 27.398C54.4739 27.5693 54.5952 27.7114 54.7464 27.8242C54.8977 27.937 55.0791 28.0016 55.2905 28.018C55.4647 28.0314 55.6294 28.001 55.7845 27.9267C55.9395 27.8523 56.0701 27.7329 56.1761 27.5683L56.1279 28.0511L56.6007 28.0878L56.9161 24.9274C56.9228 24.8606 56.9076 24.7982 56.8703 24.7407C56.833 24.683 56.7829 24.6518 56.7198 24.6469C56.6531 24.6417 56.6017 24.6514 56.5656 24.6759C56.5295 24.7005 56.5029 24.7333 56.4857 24.7741C56.4685 24.8149 56.4565 24.8613 56.4493 24.9135C56.4423 24.9656 56.4361 25.0189 56.4306 25.0732H56.4308ZM54.6745 26.2137C54.689 26.0674 54.7196 25.9212 54.7659 25.7753C54.8122 25.6294 54.8747 25.4983 54.9536 25.3822C55.0325 25.2661 55.1294 25.1747 55.2445 25.1077C55.3595 25.0408 55.4931 25.0132 55.6452 25.025C55.801 25.0371 55.9261 25.0836 56.0209 25.1647C56.1156 25.2458 56.1878 25.3461 56.2374 25.4658C56.2872 25.5855 56.3167 25.7195 56.3262 25.8676C56.3357 26.0158 56.3333 26.161 56.3192 26.3031C56.3034 26.462 56.2765 26.6189 56.2386 26.7739C56.2007 26.929 56.1448 27.0668 56.0711 27.1875C55.9974 27.3081 55.9028 27.404 55.7874 27.4752C55.6719 27.5463 55.5307 27.5754 55.3639 27.5624C55.2118 27.5506 55.0869 27.5009 54.9891 27.4133C54.8914 27.3256 54.8171 27.2178 54.7663 27.0896C54.7156 26.9614 54.6839 26.8199 54.6714 26.6652C54.6587 26.5105 54.6598 26.36 54.6744 26.2137H54.6745ZM57.3328 26.4257C57.3111 26.6432 57.3186 26.8585 57.3553 27.072C57.3919 27.2855 57.4585 27.4791 57.5551 27.653C57.6517 27.8269 57.7766 27.9703 57.9297 28.0833C58.083 28.1963 58.2652 28.2609 58.4766 28.2773C58.6843 28.2934 58.8747 28.2576 59.0479 28.1698C59.2211 28.0822 59.3715 27.9601 59.4993 27.8035C59.627 27.647 59.7301 27.4664 59.8084 27.2619C59.8867 27.0573 59.9366 26.8484 59.9578 26.6353C59.9795 26.4178 59.971 26.2035 59.9324 25.992C59.8937 25.7805 59.8267 25.5899 59.7316 25.4203C59.6364 25.2508 59.5121 25.1106 59.3587 24.9997C59.2053 24.8888 59.0247 24.8253 58.8171 24.8093C58.6094 24.7933 58.4191 24.828 58.2461 24.9136C58.0731 24.9991 57.9229 25.1182 57.7956 25.2705C57.6683 25.4229 57.5647 25.6001 57.4846 25.8025C57.4047 26.0049 57.354 26.2126 57.3327 26.4259L57.3328 26.4257ZM57.8328 26.4707C57.8465 26.3328 57.8757 26.1918 57.9199 26.0477C57.9642 25.9037 58.0249 25.7726 58.1022 25.6543C58.1794 25.5359 58.273 25.441 58.3828 25.3695C58.4928 25.298 58.62 25.2678 58.7647 25.279C58.913 25.2905 59.0352 25.339 59.1313 25.4244C59.2275 25.5098 59.3029 25.6146 59.3578 25.7389C59.4126 25.8633 59.4475 26.0007 59.4624 26.1515C59.4772 26.3022 59.4776 26.4487 59.4633 26.5907C59.4488 26.737 59.4191 26.8843 59.3744 27.0324C59.3297 27.1806 59.2688 27.3138 59.1915 27.4321C59.1143 27.5505 59.019 27.6441 58.9056 27.7133C58.7922 27.7824 58.6595 27.8112 58.5074 27.7995C58.3627 27.7882 58.2434 27.7389 58.1494 27.6517C58.0553 27.5644 57.983 27.4556 57.9325 27.3253C57.882 27.195 57.8494 27.0545 57.8345 26.9039C57.8196 26.7531 57.819 26.6088 57.8328 26.4708V26.4707ZM25.9214 18.9509C25.8372 18.9522 25.7779 19.0434 25.802 19.1358C25.8179 19.1967 25.8674 19.2375 25.9227 19.2375C26.1193 19.2369 26.3255 19.2681 26.5196 19.285C26.5771 19.2898 26.6306 19.2495 26.6485 19.1866C26.6738 19.0986 26.6196 19.006 26.5387 18.9991C26.3384 18.9817 26.1249 18.9502 25.9215 18.9508L25.9214 18.9509ZM24.8471 20.0408C24.8926 19.9148 24.7753 19.7944 24.6709 19.8595C24.6457 19.8756 24.6275 19.8988 24.6161 19.9291C24.5567 20.0882 24.5219 20.2495 24.5093 20.4218L24.5017 20.5309C24.4929 20.6653 24.6356 20.7384 24.718 20.6406C24.7381 20.6159 24.7493 20.5871 24.7519 20.5535L24.7596 20.4445C24.7697 20.3028 24.7984 20.1714 24.8472 20.0408H24.8471ZM24.6327 22.268C24.6414 22.1334 24.4988 22.0604 24.4163 22.1583C24.3963 22.1829 24.385 22.2117 24.3824 22.2453L24.3427 22.8167C24.334 22.9512 24.4766 23.0243 24.5591 22.9264C24.5792 22.9018 24.5904 22.8729 24.593 22.8394L24.6327 22.268ZM24.4737 24.5537C24.4825 24.4192 24.3398 24.3461 24.2574 24.444C24.2373 24.4686 24.2261 24.4975 24.2235 24.531L24.1838 25.1024C24.1751 25.2369 24.3177 25.31 24.4001 25.2121C24.4202 25.1875 24.4314 25.1586 24.434 25.1251L24.4737 24.5537ZM24.421 26.7699C24.4039 26.7171 24.3616 26.6811 24.3127 26.6768C24.2214 26.6699 24.154 26.7712 24.1857 26.8696C24.2493 27.0678 24.3465 27.2477 24.4715 27.4031C24.5184 27.4606 24.5964 27.4646 24.6476 27.4119C24.6994 27.3587 24.703 27.2664 24.6554 27.2082C24.5535 27.0827 24.4724 26.9305 24.421 26.7699ZM25.9586 27.6842C25.901 27.6793 25.8476 27.7197 25.8297 27.7826C25.8044 27.8706 25.8586 27.9631 25.9395 27.97L26.4398 28.0136C26.4973 28.0184 26.5507 27.9781 26.5686 27.9152C26.594 27.8272 26.5398 27.7346 26.4589 27.7277L25.9586 27.6842ZM27.96 27.8584C27.9025 27.8536 27.8491 27.8939 27.8313 27.9567C27.8059 28.0447 27.8601 28.1373 27.941 28.1442L28.4413 28.1877C28.4989 28.1925 28.5523 28.1522 28.5702 28.0894C28.5955 28.0014 28.5414 27.9088 28.4604 27.9019L27.9601 27.8584H27.96ZM29.9615 28.0325C29.9039 28.0277 29.8505 28.068 29.8326 28.1309C29.8073 28.2189 29.8614 28.3115 29.9424 28.3184L30.4427 28.3619C30.5002 28.3667 30.5536 28.3264 30.5714 28.2635C30.5968 28.1755 30.5426 28.0829 30.4617 28.076L29.9613 28.0325H29.9615ZM31.9629 28.2067C31.9054 28.2019 31.852 28.2422 31.8342 28.3051C31.8088 28.3931 31.863 28.4856 31.9439 28.4925L32.4442 28.5361C32.5018 28.5409 32.5552 28.5006 32.5731 28.4377C32.5984 28.3497 32.5442 28.2571 32.4633 28.2502L31.963 28.2067H31.9629ZM33.9644 28.3809C33.9068 28.3761 33.8534 28.4164 33.8355 28.4792C33.8102 28.5672 33.8643 28.6598 33.9453 28.6667L34.4456 28.7102C34.5031 28.715 34.5565 28.6747 34.5744 28.6119C34.5998 28.5238 34.5456 28.4313 34.4647 28.4244L33.9644 28.3809ZM35.9658 28.555C35.9083 28.5502 35.8549 28.5905 35.837 28.6534C35.8116 28.7414 35.8659 28.834 35.9467 28.8409L36.447 28.8844C36.5045 28.8892 36.558 28.8489 36.5759 28.786C36.6012 28.698 36.547 28.6054 36.4661 28.5985L35.9658 28.555ZM37.9672 28.7292C37.9097 28.7244 37.8563 28.7647 37.8384 28.8276C37.8131 28.9156 37.8672 29.0081 37.9482 29.015L38.4485 29.0585C38.506 29.0634 38.5594 29.023 38.5773 28.9602C38.6027 28.8722 38.5485 28.7796 38.4676 28.7727L37.9672 28.7292ZM39.9687 28.9034C39.9112 28.8986 39.8578 28.9389 39.8399 29.0017C39.8145 29.0897 39.8687 29.1823 39.9496 29.1892L40.4499 29.2327C40.5074 29.2375 40.5609 29.1972 40.5788 29.1344C40.6041 29.0463 40.55 28.9538 40.469 28.9469L39.9687 28.9034ZM41.9701 29.0775C41.9126 29.0727 41.8592 29.113 41.8413 29.1759C41.816 29.2639 41.8701 29.3565 41.951 29.3634L42.4514 29.4069C42.5089 29.4117 42.5623 29.3714 42.5802 29.3085C42.6056 29.2205 42.5514 29.1279 42.4705 29.121L41.9701 29.0775ZM43.9716 29.2517C43.9141 29.2469 43.8607 29.2872 43.8428 29.3501C43.8174 29.4381 43.8716 29.5306 43.9525 29.5375L44.4528 29.581C44.5103 29.5858 44.5638 29.5455 44.5816 29.4827C44.6069 29.3947 44.5527 29.3021 44.4718 29.2952L43.9715 29.2517H43.9716ZM45.9731 29.4259C45.9155 29.4211 45.8621 29.4614 45.8442 29.5242C45.8189 29.6122 45.873 29.7048 45.954 29.7117L46.4543 29.7552C46.5118 29.76 46.5652 29.7197 46.583 29.6568C46.6084 29.5688 46.5542 29.4763 46.4733 29.4694L45.9729 29.4259H45.9731ZM47.9745 29.6C47.917 29.5952 47.8636 29.6355 47.8457 29.6984C47.8203 29.7864 47.8746 29.879 47.9554 29.8859L48.4557 29.9294C48.5132 29.9342 48.5667 29.8939 48.5845 29.831C48.6098 29.743 48.5556 29.6504 48.4747 29.6435L47.9744 29.6H47.9745ZM49.9759 29.7742C49.9184 29.7694 49.865 29.8097 49.8471 29.8725C49.8218 29.9606 49.876 30.0531 49.9569 30.06L50.4572 30.1035C50.5147 30.1083 50.5681 30.068 50.586 30.0052C50.6114 29.9172 50.5571 29.8246 50.4763 29.8177L49.9759 29.7742ZM51.9774 29.9484C51.9199 29.9435 51.8665 29.9839 51.8486 30.0467C51.8232 30.1347 51.8775 30.2273 51.9583 30.2342L52.4586 30.2777C52.5161 30.2825 52.5696 30.2422 52.5875 30.1793C52.6128 30.0913 52.5585 29.9988 52.4777 29.9919L51.9774 29.9484ZM53.9788 30.1225C53.9213 30.1177 53.8679 30.158 53.85 30.2209C53.8247 30.3089 53.8789 30.4015 53.9597 30.4084L54.4601 30.4519C54.5176 30.4567 54.571 30.4164 54.5889 30.3535C54.6143 30.2655 54.56 30.1729 54.4792 30.166L53.9788 30.1225ZM55.9803 30.2967C55.9228 30.2919 55.8694 30.3322 55.8516 30.395C55.8262 30.4831 55.8804 30.5756 55.9613 30.5825L56.4616 30.626C56.5192 30.6308 56.5726 30.5905 56.5905 30.5277C56.6158 30.4397 56.5616 30.3471 56.4807 30.3402L55.9804 30.2967H55.9803ZM57.9817 30.4708C57.9242 30.466 57.8708 30.5063 57.853 30.5692C57.8277 30.6572 57.8818 30.7498 57.9628 30.7567L58.4631 30.8002C58.5206 30.8051 58.574 30.7647 58.5919 30.7018C58.6173 30.6138 58.563 30.5213 58.4822 30.5144L57.9818 30.4708H57.9817ZM59.9233 30.5204C59.8176 30.5649 59.8121 30.7324 59.915 30.786C59.9455 30.8012 59.9775 30.8025 60.0089 30.7898C60.1786 30.7209 60.3444 30.6073 60.4784 30.4699C60.5612 30.3847 60.5124 30.227 60.4011 30.2203C60.3679 30.2182 60.3354 30.2314 60.3106 30.2567C60.1996 30.3701 60.0636 30.4635 59.9233 30.5204ZM60.7325 28.7741C60.7237 28.9085 60.8664 28.9816 60.9488 28.8838C60.9689 28.8591 60.9801 28.8303 60.9827 28.7967L61.0224 28.2253C61.0311 28.0908 60.8886 28.0177 60.8062 28.1156C60.7861 28.1403 60.7749 28.1691 60.7723 28.2026L60.7326 28.7741H60.7325ZM60.8914 26.4883C60.8827 26.6228 61.0253 26.6959 61.1077 26.598C61.1278 26.5734 61.139 26.5446 61.1416 26.511L61.1813 25.9396C61.1901 25.8051 61.0475 25.732 60.9651 25.8299C60.945 25.8545 60.9338 25.8834 60.9312 25.9169L60.8915 26.4883H60.8914ZM61.0503 24.2026C61.0416 24.3371 61.1842 24.4102 61.2667 24.3123C61.2867 24.2877 61.298 24.2588 61.3006 24.2253L61.3403 23.6539C61.349 23.5194 61.2065 23.4463 61.124 23.5442C61.104 23.5688 61.0927 23.5977 61.0901 23.6312L61.0504 24.2026H61.0503ZM60.4738 22.3498C60.5727 22.4079 60.6838 22.3017 60.6512 22.1798C60.6407 22.143 60.6194 22.113 60.5891 22.0951C60.4256 21.9979 60.2488 21.9375 60.0654 21.9172C59.9482 21.9056 59.8823 22.0651 59.965 22.1612C59.9862 22.185 60.012 22.1991 60.0417 22.2024C60.1941 22.2198 60.338 22.2689 60.4739 22.3497L60.4738 22.3498ZM58.5428 22.0716C58.6003 22.0764 58.6538 22.0361 58.6717 21.9732C58.697 21.8852 58.6429 21.7927 58.5619 21.7858L58.0616 21.7423C58.0041 21.7373 57.9507 21.7778 57.9329 21.8406C57.9075 21.9286 57.9617 22.0212 58.0426 22.0281L58.5429 22.0716H58.5428ZM56.5414 21.8974C56.5989 21.9022 56.6523 21.8619 56.6702 21.7991C56.6956 21.7111 56.6414 21.6185 56.5605 21.6116L56.0601 21.5681C56.0026 21.5633 55.9492 21.6036 55.9313 21.6664C55.9059 21.7545 55.9602 21.847 56.041 21.8539L56.5414 21.8974ZM54.5399 21.7233C54.5974 21.7281 54.6509 21.6878 54.6688 21.6249C54.6941 21.5369 54.64 21.4443 54.559 21.4374L54.0587 21.3939C54.0012 21.3891 53.9478 21.4294 53.9299 21.4923C53.9045 21.5803 53.9587 21.6729 54.0396 21.6798L54.5399 21.7233ZM52.5385 21.5491C52.596 21.5539 52.6494 21.5136 52.6673 21.4507C52.6927 21.3627 52.6384 21.2702 52.5576 21.2633L52.0572 21.2198C51.9997 21.2149 51.9463 21.2553 51.9285 21.3181C51.9032 21.4061 51.9573 21.4987 52.0383 21.5056L52.5386 21.5491H52.5385ZM50.537 21.3749C50.5945 21.3797 50.648 21.3394 50.6658 21.2766C50.6911 21.1886 50.6369 21.096 50.556 21.0891L50.0557 21.0456C49.9982 21.0408 49.9448 21.0811 49.9269 21.144C49.9015 21.232 49.9557 21.3245 50.0366 21.3314L50.5369 21.3749H50.537ZM48.5356 21.2008C48.5931 21.2056 48.6465 21.1653 48.6644 21.1024C48.6898 21.0144 48.6356 20.9218 48.5547 20.9149L48.0543 20.8714C47.9968 20.8666 47.9434 20.9069 47.9256 20.9698C47.9003 21.0578 47.9544 21.1504 48.0354 21.1573L48.5357 21.2008H48.5356ZM46.5341 21.0266C46.5916 21.0314 46.6451 20.9911 46.6629 20.9282C46.6882 20.8402 46.634 20.7477 46.5531 20.7408L46.0528 20.6973C45.9953 20.6925 45.9419 20.7328 45.924 20.7956C45.8986 20.8836 45.9529 20.9762 46.0337 20.9831L46.534 21.0266H46.5341ZM44.5327 20.8524C44.5902 20.8573 44.6436 20.8169 44.6614 20.7541C44.6868 20.6661 44.6326 20.5735 44.5517 20.5666L44.0513 20.5231C43.9938 20.5183 43.9404 20.5586 43.9225 20.6215C43.8971 20.7095 43.9513 20.802 44.0322 20.8089L44.5326 20.8524H44.5327ZM42.5312 20.6783C42.5887 20.6831 42.6422 20.6428 42.66 20.5799C42.6853 20.4919 42.6311 20.3993 42.5502 20.3924L42.0499 20.3489C41.9924 20.3441 41.939 20.3844 41.9211 20.4473C41.8957 20.5353 41.9499 20.6279 42.0308 20.6348L42.5311 20.6783H42.5312ZM40.5298 20.5041C40.5873 20.5089 40.6407 20.4686 40.6586 20.4058C40.684 20.3177 40.6298 20.2252 40.5489 20.2183L40.0485 20.1748C39.991 20.17 39.9376 20.2103 39.9197 20.2731C39.8944 20.3611 39.9485 20.4537 40.0294 20.4606L40.5298 20.5041ZM38.5283 20.3299C38.5858 20.3348 38.6393 20.2944 38.6572 20.2316C38.6825 20.1436 38.6284 20.051 38.5474 20.0441L38.0471 20.0006C37.9896 19.9958 37.9362 20.0361 37.9183 20.099C37.8929 20.187 37.9471 20.2795 38.028 20.2864L38.5283 20.3299ZM36.5269 20.1558C36.5844 20.1606 36.6378 20.1203 36.6557 20.0574C36.6811 19.9694 36.6269 19.8768 36.546 19.8699L36.0456 19.8264C35.9881 19.8216 35.9347 19.8619 35.9168 19.9248C35.8915 20.0128 35.9456 20.1054 36.0266 20.1123L36.5269 20.1558ZM34.5254 19.9816C34.5829 19.9864 34.6364 19.9461 34.6543 19.8833C34.6796 19.7952 34.6255 19.7027 34.5445 19.6958L34.0442 19.6523C33.9867 19.6475 33.9333 19.6878 33.9154 19.7506C33.89 19.8386 33.9442 19.9312 34.0251 19.9381L34.5254 19.9816ZM32.524 19.8075C32.5815 19.8123 32.6349 19.772 32.6528 19.7091C32.6782 19.6211 32.624 19.5285 32.5431 19.5216L32.0427 19.4781C31.9852 19.4733 31.9318 19.5136 31.9139 19.5765C31.8886 19.6645 31.9427 19.757 32.0237 19.7639L32.524 19.8075ZM30.5225 19.6333C30.58 19.6381 30.6335 19.5978 30.6514 19.5349C30.6767 19.4469 30.6226 19.3544 30.5416 19.3474L30.0413 19.3039C29.9838 19.2991 29.9304 19.3394 29.9126 19.4023C29.8872 19.4903 29.9414 19.5829 30.0223 19.5898L30.5226 19.6333H30.5225ZM28.5211 19.4591C28.5786 19.4639 28.632 19.4236 28.6499 19.3608C28.6753 19.2728 28.621 19.1802 28.5402 19.1733L28.0398 19.1298C27.9823 19.125 27.9289 19.1653 27.9111 19.2281C27.8858 19.3161 27.9399 19.4087 28.0209 19.4156L28.5212 19.4591H28.5211ZM25.8589 23.8109C25.5936 24.1077 25.1637 24.1091 24.8975 23.8123C24.6316 23.5158 24.6309 23.0347 24.8959 22.7376C25.161 22.4403 25.5914 22.4395 25.8571 22.7354C26.1226 23.0318 26.1236 23.5132 25.8589 23.8109Z" fill="white"/>
<path fill-rule="evenodd" clip-rule="evenodd" d="M64.8478 9.5217C64.8788 9.39783 64.913 9.27481 64.9504 9.15254C65.1572 8.47462 65.4402 7.83157 65.7993 7.24202C66.3772 6.2933 67.1379 5.57975 68.0695 5.12702C68.9925 4.67848 69.9741 4.47633 70.9751 4.47633C71.5377 4.47633 72.1045 4.5387 72.6495 4.70252C73.1431 4.85092 73.6195 5.06687 74.0742 5.33101C74.2898 5.42161 74.4743 5.5784 74.6145 5.78744C74.7708 6.02065 74.8631 6.29539 74.8631 6.59097C74.8631 6.63423 74.8604 6.67663 74.8549 6.71941C74.8174 7.01215 74.7568 7.30082 74.6899 7.58641C74.6164 7.89998 74.5399 8.21269 74.4603 8.52429C74.4557 8.54192 74.4508 8.55942 74.4453 8.5768C74.3872 8.7607 74.334 8.9483 74.2962 9.13911C74.2641 9.30021 74.2315 9.46118 74.1916 9.61994C74.0965 10.0472 73.8242 10.3563 73.4666 10.5086C73.1828 10.6296 72.8823 10.6445 72.5883 10.5663C72.3391 10.509 72.0969 10.4173 71.8652 10.2984C71.6293 10.1933 71.3907 10.0966 71.1495 10.0089C71.0031 9.95582 70.8361 9.90874 70.6817 9.90874C70.4713 9.90874 70.3484 9.97924 70.2354 10.1834C70.0455 10.5264 69.9746 10.9132 69.9746 11.3155C69.9746 11.5238 70.0009 11.7308 70.047 11.9322C70.0899 12.1191 70.1507 12.3026 70.2373 12.4692C70.2921 12.5747 70.3604 12.6673 70.4492 12.7372C70.4978 12.7755 70.5447 12.7878 70.6036 12.7878C70.6984 12.7878 70.7994 12.7651 70.891 12.7386C71.0385 12.6959 71.1839 12.6437 71.3263 12.5825C71.3321 12.58 71.3379 12.5775 71.3438 12.5752C71.5275 12.5019 71.7135 12.4351 71.9031 12.3845C72.1052 12.3307 72.3125 12.3066 72.5199 12.3066C72.8467 12.3066 73.1681 12.3734 73.4708 12.5154C73.758 12.6501 74.0193 12.8407 74.2457 13.0834C74.4667 13.3203 74.6487 13.5968 74.7828 13.9074C74.9261 14.2394 75 14.5976 75 14.968C75 15.6021 74.8459 16.201 74.489 16.6942C74.1877 17.1104 73.8124 17.4314 73.3837 17.6571C72.9818 17.8686 72.5571 18.0164 72.1222 18.1071C71.7564 18.1834 71.385 18.2349 71.013 18.2412C70.8841 18.2634 70.7534 18.2637 70.6233 18.2637C70.4998 18.2637 70.376 18.2616 70.2539 18.2381C69.4852 18.1978 68.7371 18.0048 68.0375 17.6345C67.3529 17.2722 66.7414 16.7741 66.2288 16.1408C65.7185 15.5104 65.3264 14.7809 65.0499 13.9833C64.8736 13.4747 64.7552 12.9488 64.6888 12.4127C64.5641 12.6585 64.3938 12.8751 64.1665 13.0447C63.7693 13.3409 63.2967 13.4735 62.824 13.5194C62.8481 13.5895 62.8672 13.6632 62.8809 13.7401C62.8822 13.7474 62.8835 13.7548 62.8846 13.7622L63.2524 16.1226C63.3246 16.4937 63.249 16.8697 63.0431 17.1691C62.8738 17.4153 62.642 17.5753 62.3796 17.6543C61.9367 17.8651 61.4753 18.0228 61.0028 18.1188C60.4936 18.2223 59.9753 18.2637 59.4584 18.2637C58.6095 18.2637 57.7702 18.1116 56.9743 17.7692C56.2237 17.4463 55.538 16.977 54.9494 16.3528C54.3607 15.7285 53.908 14.9809 53.5907 14.1387C53.251 13.2375 53.1067 12.2717 53.1067 11.2936C53.1067 10.3662 53.2558 9.45909 53.5669 8.60157C53.8656 7.77857 54.2884 7.03396 54.8387 6.4014C55.3896 5.76797 56.0397 5.27937 56.7581 4.9303C57.5228 4.5588 58.3355 4.38907 59.1649 4.38907C59.9416 4.38907 60.6953 4.56545 61.4059 4.92438C62.0842 5.26704 62.7014 5.73407 63.2353 6.32288C63.7725 6.91539 64.1977 7.61143 64.5076 8.38723C64.6547 8.7554 64.7681 9.13442 64.8478 9.52195V9.5217ZM44.9642 4.99205C44.9445 4.91834 44.9338 4.83995 44.9333 4.75737L44.9137 1.89221C44.9117 1.5917 45.0598 1.35258 45.2745 1.19259C45.4648 1.05072 45.6812 0.985636 45.9078 0.985636H53.3184C53.9096 0.985636 54.4405 1.20171 54.8648 1.67626C55.2733 2.13318 55.4857 2.70054 55.4857 3.35406C55.4857 3.6823 55.4242 3.99871 55.2969 4.29305C55.1767 4.57075 55.0148 4.81591 54.8133 5.02324C54.6129 5.22933 54.3845 5.38969 54.1339 5.50358C53.8733 5.62203 53.5988 5.67873 53.3184 5.67873H52.3573V15.2743C52.3573 15.6228 52.2988 15.9619 52.1764 16.2812C52.0572 16.5923 51.8883 16.8673 51.6721 17.1003C51.4559 17.3331 51.2055 17.5128 50.9305 17.641C50.6381 17.7772 50.3292 17.8396 50.014 17.8396C49.7048 17.8396 49.4034 17.7745 49.117 17.641C48.8373 17.5106 48.5857 17.3247 48.3699 17.0833C48.1625 16.8512 47.9931 16.5841 47.8673 16.2852C47.7337 15.9675 47.6707 15.6265 47.6707 15.2743V5.67873H46.2773C46.2953 5.70141 46.313 5.72483 46.3303 5.74886C46.6403 6.18002 46.7846 6.69056 46.7846 7.24732V16.7835C46.7846 17.0803 46.6542 17.3275 46.4426 17.4946C46.2545 17.643 46.0371 17.7085 45.81 17.7085H43.3853C43.179 17.7085 42.9799 17.655 42.8006 17.537C42.7646 17.5132 42.7301 17.4873 42.6976 17.4592C42.4859 17.5653 42.2659 17.6483 42.0392 17.7077C41.6918 17.7987 41.3364 17.8397 40.9802 17.8397C40.2173 17.8397 39.4736 17.6771 38.782 17.3028C38.141 16.956 37.5729 16.4836 37.0988 15.881C36.6231 15.2763 36.2701 14.5779 36.0308 13.8127C35.7834 13.022 35.6648 12.1986 35.6648 11.3595C35.6648 10.7062 35.7451 10.0616 35.9062 9.4348C36.0655 8.81518 36.3006 8.22945 36.6122 7.69081C36.9227 7.15402 37.3035 6.68428 37.7482 6.28948C38.2128 5.87705 38.7398 5.59183 39.3081 5.42075C39.6678 5.3039 40.0393 5.25114 40.413 5.25114C40.6874 5.25114 40.9622 5.25299 41.2365 5.26224C41.4426 5.26926 41.6507 5.2859 41.8545 5.32239C42.0484 5.35702 42.2373 5.4189 42.4167 5.51011C42.5275 5.56644 42.637 5.62807 42.7452 5.69241C42.8608 5.59701 42.9894 5.51381 43.1148 5.43726C43.1439 5.41951 43.1737 5.40596 43.2038 5.39659C43.4052 5.26297 43.6192 5.15266 43.8438 5.08191C44.0896 5.00462 44.3423 4.96678 44.5973 4.96678C44.6675 4.96678 44.7378 4.97184 44.8076 4.98046C44.841 4.98466 44.8764 4.9886 44.9102 4.9886C44.9249 4.9886 44.9374 4.98934 44.9519 4.99107C44.9559 4.99156 44.9599 4.99193 44.9638 4.99254L44.9642 4.99205ZM5.17535 10.6103V16.7395C5.17535 17.0363 5.04489 17.2835 4.8333 17.4505C4.64005 17.6031 4.41378 17.6643 4.18115 17.6643H1.36548C1.13889 17.6643 0.922442 17.5994 0.732106 17.4574C0.511773 17.2931 0.371394 17.0442 0.371394 16.7395V3.37575C0.371394 3.02163 0.434947 2.67946 0.566047 2.35862C0.69078 2.05343 0.85986 1.78066 1.07059 1.54486C1.28812 1.30155 1.54244 1.11395 1.82244 0.97861C2.12478 0.832425 2.44568 0.766727 2.77326 0.766727C3.18156 0.766727 3.57237 0.871867 3.92953 1.09891C4.25344 1.30475 4.53398 1.57654 4.74741 1.92413L8.62277 8.00401V3.39757C8.62277 3.04345 8.68632 2.70128 8.81742 2.38044C8.94421 2.07032 9.11911 1.79594 9.33707 1.56089C9.55514 1.32558 9.80482 1.13909 10.08 1.00228C10.3736 0.856337 10.6854 0.788668 11.0051 0.788668C11.3287 0.788668 11.6434 0.857939 11.9426 0.998824C12.223 1.13096 12.4818 1.31067 12.7067 1.54412C12.9305 1.77659 13.1082 2.05318 13.2395 2.36429C13.3739 2.68267 13.4461 3.02225 13.4461 3.37575V15.2959C13.4461 16.0161 13.2016 16.631 12.7365 17.1161C12.2573 17.6158 11.6705 17.8392 11.0245 17.8392C10.6583 17.8392 10.3036 17.7576 9.96635 17.5947C9.63369 17.434 9.3429 17.1954 9.13001 16.8591L5.17502 10.6102L5.17535 10.6103ZM25.7453 11.2934C25.7453 12.1633 25.6101 13.0125 25.3245 13.8191C25.0505 14.5927 24.6669 15.2964 24.17 15.9079C23.6701 16.5229 23.0762 17.0021 22.4072 17.3492C21.6956 17.7184 20.936 17.883 20.1563 17.883C19.3738 17.883 18.6119 17.7172 17.8969 17.3499C17.2258 17.0051 16.625 16.5317 16.1169 15.9234C15.6114 15.3181 15.2234 14.6165 14.9488 13.8409C14.6654 13.0406 14.528 12.2005 14.528 11.3371C14.528 10.4672 14.6632 9.61797 14.9488 8.81136C15.2234 8.03581 15.6114 7.33422 16.1169 6.7289C16.6226 6.12332 17.2186 5.64927 17.8857 5.30316C18.5973 4.93387 19.3569 4.76932 20.1366 4.76932C20.9138 4.76932 21.6725 4.92931 22.3845 5.29059C23.0542 5.63041 23.6507 6.10151 24.1565 6.70696C24.662 7.31228 25.05 8.01387 25.3246 8.78942C25.6079 9.58974 25.7454 10.4298 25.7454 11.2933L25.7453 11.2934ZM35.5404 8.66135C35.5384 8.68995 35.5339 8.71867 35.5271 8.74739C35.4471 9.08327 35.3383 9.42248 35.2327 9.74887C35.0774 10.2286 34.9155 10.7056 34.7502 11.1809C34.5592 11.7301 34.362 12.2764 34.1599 12.8204C33.9644 13.3467 33.7651 13.8713 33.5602 14.3929C33.3942 14.8157 33.2244 15.2374 33.0461 15.6536C33.0045 15.7506 32.9552 15.8677 32.9013 15.9849C32.8979 16.0359 32.887 16.0871 32.8684 16.1367C32.6959 16.5925 32.4333 16.9765 32.0948 17.2879C31.6984 17.6525 31.2174 17.7955 30.715 17.7955C30.2158 17.7955 29.7069 17.6856 29.2944 17.3472C28.9172 17.0378 28.651 16.6151 28.4792 16.1251L25.4014 7.34396C25.2738 7.08376 25.281 6.78868 25.4312 6.53661C25.5537 6.33102 25.7341 6.20135 25.939 6.13109L28.1982 4.94312C28.2203 4.93153 28.24 4.9234 28.2635 4.91625C28.4756 4.85154 28.6919 4.85154 28.904 4.91625C29.131 4.98552 29.3275 5.12764 29.4553 5.35616C29.4721 5.38636 29.4841 5.41397 29.4947 5.44762L30.6336 9.02756L31.3441 6.51356C31.4933 5.98552 31.7767 5.5641 32.1837 5.26063C32.5905 4.95729 33.0453 4.81308 33.5308 4.81308C33.8381 4.81308 34.1381 4.87742 34.4217 5.01337C34.6871 5.14058 34.9306 5.31425 35.1439 5.53525C35.358 5.75687 35.5288 6.01905 35.6504 6.31844C35.7724 6.61895 35.8349 6.93782 35.8349 7.26902C35.8349 7.68822 35.6806 8.23118 35.5405 8.66148L35.5404 8.66135ZM61.8821 13.115C61.9323 13.1294 61.9818 13.1481 62.0307 13.1715C62.2822 13.2921 62.4616 13.5169 62.5167 13.8248C62.5174 13.8289 62.5179 13.8323 62.5186 13.8364L62.8879 16.2065C62.9387 16.4566 62.8903 16.7036 62.7507 16.9068C62.6262 17.0878 62.454 17.1978 62.2615 17.2504C61.8356 17.4554 61.3927 17.6082 60.9374 17.7008C60.4501 17.7999 59.9527 17.8392 59.4582 17.8392C58.6534 17.8392 57.8597 17.6966 57.1051 17.372C56.3987 17.0681 55.7556 16.6288 55.202 16.0417C54.6506 15.457 54.2289 14.7594 53.9316 13.9709C53.6118 13.1222 53.478 12.2142 53.478 11.2934C53.478 10.4205 53.6172 9.57039 53.91 8.76391C54.1905 7.99082 54.5855 7.29404 55.1021 6.7003C55.6195 6.10533 56.2282 5.64853 56.9034 5.32054C57.6227 4.9711 58.3847 4.8132 59.1649 4.8132C59.8909 4.8132 60.5919 4.97689 61.2557 5.31228C61.8951 5.63534 62.4745 6.0734 62.9773 6.62795C63.4815 7.18397 63.8788 7.83465 64.1698 8.56312C64.4684 9.31044 64.6172 10.1002 64.6172 10.9217C64.6172 11.5857 64.4825 12.3022 63.9632 12.6895C63.5093 13.0279 62.9223 13.1151 62.3913 13.1151H61.8822L61.8821 13.115ZM58.8448 13.115C58.8671 13.1343 58.8901 13.153 58.9136 13.1712C59.144 13.3487 59.3954 13.4305 59.6731 13.4305C59.8886 13.4305 60.1104 13.396 60.322 13.3509C60.5859 13.2947 60.8492 13.2344 61.1118 13.171C61.1593 13.1455 61.2116 13.1295 61.2671 13.1254C61.2777 13.1215 61.2887 13.1179 61.3003 13.115H58.8448ZM70.9804 17.8172C70.8656 17.8403 70.7281 17.8392 70.623 17.8392C70.5227 17.8392 70.4004 17.8387 70.2948 17.8153C69.5654 17.7803 68.8573 17.6008 68.1933 17.2493C67.5517 16.9097 66.9812 16.4455 66.5011 15.8525C66.0216 15.2602 65.6548 14.5768 65.3949 13.8269C65.1189 13.0308 64.9947 12.1919 64.9947 11.3371C64.9947 10.6376 65.0995 9.95237 65.3009 9.29195C65.4968 8.64977 65.7639 8.04259 66.104 7.48411C66.6426 6.59997 67.3468 5.93905 68.2148 5.51726C69.0924 5.09078 70.0231 4.90047 70.9749 4.90047C71.5048 4.90047 72.0414 4.95828 72.5548 5.1126C73.0306 5.25558 73.4891 5.465 73.9266 5.72125C74.0837 5.78251 74.2173 5.89308 74.3194 6.04518C74.4259 6.20394 74.4914 6.38882 74.4914 6.59072C74.4914 6.61439 74.4901 6.63448 74.4872 6.6579C74.4521 6.9324 74.3936 7.20862 74.3309 7.47646C74.2582 7.78708 74.1824 8.09658 74.1036 8.40522C74.1011 8.41496 74.0987 8.42322 74.0957 8.43271C74.0327 8.63239 73.9748 8.83786 73.9337 9.04494C73.903 9.19975 73.8713 9.35666 73.8326 9.50925C73.7692 9.80273 73.5823 10.0061 73.3365 10.1108C73.1195 10.2032 72.8916 10.2121 72.667 10.1513C72.4398 10.0997 72.2197 10.0157 72.0089 9.90664C71.7628 9.79682 71.5137 9.69574 71.2619 9.60416C71.0781 9.53736 70.8754 9.48398 70.6815 9.48398C70.3429 9.48398 70.1025 9.62857 69.9212 9.95619C69.6933 10.368 69.603 10.8308 69.603 11.315C69.603 11.5599 69.6332 11.8024 69.6875 12.0391C69.7392 12.2647 69.8132 12.4842 69.9176 12.6851C70 12.844 70.1048 12.981 70.2382 13.086C70.3494 13.1735 70.4689 13.2116 70.6034 13.2116C70.7296 13.2116 70.8602 13.1847 70.9822 13.1493C71.1431 13.1028 71.3016 13.0458 71.457 12.979C71.4601 12.9776 71.4629 12.9765 71.466 12.9752C71.6366 12.907 71.811 12.8442 71.9871 12.7972C72.1616 12.7507 72.3406 12.7304 72.5196 12.7304C72.7983 12.7304 73.0712 12.7863 73.3294 12.9074C73.5751 13.0226 73.7976 13.1847 73.9911 13.3923C74.1797 13.5944 74.3348 13.8294 74.4493 14.0946C74.5675 14.3687 74.6282 14.662 74.6282 14.9675C74.6282 15.5027 74.5034 16.0072 74.2023 16.4234C73.9365 16.7907 73.6065 17.0719 73.2277 17.2714C72.8539 17.4681 72.4596 17.6049 72.055 17.6892C71.7017 17.7629 71.3399 17.813 70.9802 17.8168L70.9804 17.8172ZM21.1173 11.3152C21.1173 11.0481 21.0926 10.7823 21.047 10.5203C21.007 10.2908 20.9415 10.0664 20.8391 9.86288C20.7555 9.69685 20.6493 9.5519 20.5132 9.43912C20.4002 9.34556 20.275 9.30908 20.1365 9.30908C20.0046 9.30908 19.8873 9.34433 19.7831 9.43838C19.6474 9.56102 19.5395 9.71374 19.4535 9.8847C19.3512 10.0881 19.2856 10.3125 19.2456 10.542C19.2012 10.7963 19.1752 11.0555 19.1752 11.315C19.1752 11.5821 19.1999 11.848 19.2456 12.1099C19.2879 12.3525 19.3547 12.5888 19.4533 12.8094C19.5329 12.9875 19.6375 13.1445 19.7747 13.2696C19.882 13.3675 19.9994 13.4086 20.1364 13.4086C20.2787 13.4086 20.4107 13.3736 20.525 13.2741C20.6596 13.1569 20.7627 13.008 20.8414 12.8371C20.9411 12.6207 21.0057 12.3843 21.0464 12.1448C21.0931 11.8713 21.1172 11.5937 21.1172 11.315L21.1173 11.3152ZM42.2544 11.2715C42.2544 11.0087 42.2305 10.7473 42.1844 10.4898C42.1442 10.2646 42.0825 10.041 41.9886 9.83725C41.918 9.68416 41.8248 9.55289 41.7013 9.45194C41.5879 9.35925 41.4497 9.33102 41.3128 9.33102C41.1743 9.33102 41.0491 9.36751 40.9361 9.46106C40.7995 9.57421 40.6946 9.72274 40.6129 9.89037C40.5087 10.1042 40.4374 10.3364 40.3906 10.575C40.3401 10.8324 40.3124 11.0949 40.3124 11.3589C40.3124 11.6217 40.3364 11.8832 40.3825 12.1406C40.4243 12.375 40.4906 12.6032 40.5882 12.8153C40.6669 12.9861 40.7699 13.135 40.9046 13.2523C41.0145 13.3479 41.1357 13.3867 41.2736 13.3867C41.4195 13.3867 41.5636 13.3549 41.6817 13.2523C41.8172 13.1344 41.9187 12.982 41.9959 12.8094C42.0938 12.5905 42.1557 12.3537 42.1917 12.1119C42.2332 11.8342 42.2544 11.5531 42.2544 11.2714V11.2715ZM58.5788 9.51554H59.6725C59.6329 9.42938 59.587 9.34655 59.5344 9.26742C59.427 9.10583 59.3042 9.02485 59.1257 9.02485C58.9502 9.02485 58.8197 9.07982 58.7195 9.24782C58.6682 9.33398 58.6214 9.42346 58.5787 9.51554H58.5788ZM35.3212 10.6798C35.2468 10.8995 35.1714 11.1186 35.0953 11.3374C34.9034 11.8896 34.7051 12.4391 34.5018 12.9861C34.3053 13.5152 34.105 14.0424 33.899 14.5667C33.7311 14.994 33.5598 15.4195 33.3796 15.8402C33.3401 15.9324 33.3009 16.0247 33.2602 16.1161C33.2494 16.1809 33.2323 16.2444 33.2093 16.3051C33.013 16.8242 32.7129 17.2645 32.3277 17.6186C31.8645 18.0447 31.3031 18.22 30.7149 18.22C30.1356 18.22 29.5555 18.0841 29.0776 17.6921C28.6428 17.3355 28.3323 16.8481 28.1342 16.283L26.0678 10.3872C26.1005 10.6865 26.1168 10.9889 26.1168 11.2936C26.1168 12.2168 25.9722 13.1217 25.6689 13.9784C25.3784 14.7987 24.9696 15.5478 24.4422 16.1968C23.9092 16.8527 23.2735 17.3658 22.5608 17.7357C21.8014 18.1298 20.9884 18.3075 20.1563 18.3075C19.322 18.3075 18.5071 18.1286 17.7446 17.737C17.0306 17.3704 16.389 16.8641 15.8481 16.2164C15.3106 15.5727 14.8962 14.8242 14.6045 14.0002C14.3034 13.15 14.1566 12.2539 14.1566 11.3372C14.1566 10.414 14.3011 9.50901 14.6045 8.65236C14.8962 7.82824 15.3106 7.07969 15.8481 6.43603C16.3863 5.79163 17.0227 5.28491 17.7321 4.91686C18.4915 4.5228 19.3045 4.34506 20.1366 4.34506C20.9652 4.34506 21.7763 4.51775 22.5353 4.90281C23.2483 5.26458 23.8862 5.76883 24.4251 6.41409C24.6162 6.64298 24.7918 6.88507 24.9518 7.1391C24.9133 6.85055 24.971 6.55498 25.1241 6.29798C25.2893 6.0209 25.5291 5.83539 25.8056 5.73432L28.0429 4.55793C28.0835 4.53661 28.1245 4.51972 28.1677 4.50653C28.4423 4.42272 28.7251 4.42272 28.9998 4.50653C29.3169 4.60329 29.5902 4.80938 29.7683 5.12813C29.7994 5.18372 29.8241 5.24091 29.8438 5.30291L30.6128 7.72015L30.9906 6.3834C31.1659 5.76291 31.5029 5.26187 31.9807 4.90552C32.4481 4.55695 32.9737 4.38894 33.5308 4.38894C33.8871 4.38894 34.2365 4.46475 34.5654 4.6224C34.8694 4.76809 35.1491 4.96814 35.3933 5.22107C35.6439 5.48053 35.8448 5.78941 35.9872 6.13996C36.1318 6.49594 36.2063 6.87668 36.2063 7.26914C36.2063 7.40559 36.1939 7.54746 36.1729 7.6913C36.2147 7.61217 36.258 7.5339 36.3026 7.45662C36.635 6.88211 37.0447 6.37662 37.5206 5.95409C38.0235 5.50764 38.5955 5.19678 39.2103 5.01103C39.6018 4.88432 40.0067 4.82639 40.4134 4.82639C40.6916 4.82639 40.9699 4.82824 41.248 4.83773C41.4703 4.84525 41.6927 4.86337 41.9125 4.90281C42.1384 4.94324 42.3591 5.01584 42.5682 5.12209C42.6197 5.14822 42.6707 5.17534 42.7214 5.20332C42.7932 5.15401 42.8665 5.10767 42.9404 5.06268C42.9769 5.04037 43.015 5.02114 43.0542 5.00549C43.2725 4.86436 43.5036 4.74861 43.7457 4.67244C44.0114 4.58887 44.2851 4.54585 44.5604 4.54228L44.5424 1.89553C44.5393 1.44872 44.7502 1.07685 45.0715 0.837232C45.3224 0.650124 45.6093 0.561254 45.9079 0.561254H53.3186C54.006 0.561254 54.6302 0.819852 55.1247 1.37304C55.6043 1.90959 55.8572 2.58628 55.8572 3.35394C55.8572 3.74701 55.7826 4.12813 55.63 4.4809C55.4892 4.8063 55.2981 5.09534 55.0619 5.33829C54.8291 5.5779 54.5623 5.76538 54.2712 5.89764C53.9672 6.03581 53.6456 6.10286 53.3184 6.10286H52.7287V15.2741C52.7287 15.6807 52.6595 16.0782 52.5166 16.4511C52.3777 16.814 52.1791 17.137 51.9269 17.4088C51.6775 17.6774 51.3879 17.8859 51.0708 18.0337C50.7341 18.1906 50.3771 18.2637 50.014 18.2637C49.6571 18.2637 49.3074 18.1878 48.9767 18.0337C48.6528 17.8827 48.3602 17.6659 48.1101 17.3863C47.8721 17.12 47.6769 16.8119 47.5326 16.4688C47.3749 16.0939 47.2993 15.6896 47.2993 15.2742V6.10299H46.9534C47.0899 6.45822 47.156 6.8434 47.156 7.2472V16.7834C47.156 17.2203 46.9656 17.5973 46.6538 17.8434C46.4034 18.041 46.1128 18.1325 45.81 18.1325H43.3853C43.1318 18.1325 42.8856 18.0687 42.6621 17.9339C42.4862 18.0104 42.3058 18.0729 42.1222 18.121C41.7478 18.219 41.3642 18.2637 40.9803 18.2637C40.1628 18.2637 39.3641 18.087 38.623 17.6859C37.9385 17.3154 37.3294 16.8084 36.8227 16.1643C36.315 15.5189 35.9365 14.7713 35.6811 13.9552C35.4197 13.1196 35.2935 12.246 35.2935 11.3591C35.2935 11.1318 35.3027 10.9053 35.3212 10.68V10.6798ZM5.54674 11.9213V16.7395C5.54674 17.1765 5.3563 17.5534 5.04446 17.7995C4.78863 18.0016 4.48996 18.0886 4.18115 18.0886H1.36548C1.06681 18.0886 0.780014 17.9997 0.529145 17.8126C0.203716 17.57 0 17.1887 0 16.7394V3.37563C0 2.96 0.0755305 2.55596 0.229613 2.17903C0.373012 1.82824 0.568636 1.51257 0.810765 1.24164C1.06131 0.961354 1.35512 0.743801 1.67775 0.587755C2.02573 0.419506 2.39626 0.342346 2.77337 0.342346C3.24436 0.342346 3.69765 0.465852 4.11015 0.728024C4.48198 0.964312 4.80417 1.27862 5.04953 1.67724L8.25138 6.70042V3.39757C8.25138 2.98194 8.32691 2.5779 8.48099 2.20097C8.62741 1.84266 8.83048 1.52391 9.08221 1.25237C9.33135 0.983664 9.61772 0.769316 9.93182 0.613147C10.272 0.444035 10.6347 0.364286 11.0052 0.364286C11.3769 0.364286 11.7405 0.444528 12.0842 0.606491C12.4043 0.757237 12.7001 0.963696 12.9566 1.23006C13.2155 1.49889 13.4222 1.8201 13.5741 2.17989C13.7326 2.55534 13.8176 2.9584 13.8176 3.37563V15.2958C13.8176 16.1355 13.529 16.8641 12.987 17.4293C12.4384 18.0013 11.7624 18.2634 11.0247 18.2634C10.6095 18.2634 10.2045 18.1701 9.82198 17.9853C9.42652 17.7942 9.0821 17.5069 8.82929 17.1074L5.54674 11.9209V11.9213ZM41.883 11.2716C41.883 11.0375 41.8616 10.8041 41.8206 10.5748C41.7874 10.3894 41.7375 10.2031 41.66 10.0352C41.6166 9.94128 41.5612 9.85931 41.4852 9.79706C41.4414 9.76132 41.3644 9.75552 41.3128 9.75552C41.2544 9.75552 41.2022 9.76489 41.1543 9.80471C41.0622 9.881 40.9924 9.98429 40.9375 10.0971C40.8507 10.2749 40.792 10.4697 40.7531 10.6679C40.7086 10.8947 40.6839 11.1264 40.6839 11.359C40.6839 11.5931 40.7054 11.8265 40.7464 12.0558C40.7813 12.2507 40.8359 12.4416 40.917 12.6178C40.9702 12.7332 41.0385 12.8354 41.1298 12.9148C41.1741 12.9534 41.2186 12.9625 41.2737 12.9625C41.3306 12.9625 41.4095 12.9558 41.4568 12.9148C41.5472 12.836 41.6138 12.7315 41.6652 12.6165C41.7458 12.4363 41.796 12.2397 41.8256 12.0407C41.8635 11.7867 41.883 11.5291 41.883 11.2714V11.2716ZM20.7461 11.3154C20.7461 11.0764 20.7237 10.8379 20.6828 10.6034C20.6508 10.4196 20.5991 10.2375 20.5171 10.0744C20.46 9.96088 20.3884 9.85993 20.2952 9.78277C20.2472 9.74295 20.195 9.73359 20.1366 9.73359C20.0915 9.73359 20.0499 9.73864 20.0137 9.7713C19.9154 9.86005 19.838 9.97258 19.7758 10.0962C19.6938 10.2593 19.6422 10.4413 19.6101 10.6252C19.5705 10.8523 19.5468 11.0836 19.5468 11.3152C19.5468 11.5542 19.5692 11.7928 19.6101 12.0272C19.6457 12.2311 19.7014 12.4311 19.7843 12.6166C19.8396 12.7402 19.9111 12.8512 20.0066 12.9381C20.0474 12.9753 20.0847 12.9844 20.1367 12.9844C20.1934 12.9844 20.2538 12.9771 20.3003 12.9367C20.3915 12.8573 20.4599 12.7552 20.5131 12.6398C20.5957 12.4603 20.6485 12.2625 20.6823 12.064C20.7243 11.8174 20.7462 11.5666 20.7462 11.3154H20.7461Z" fill="white"/>
<path d="M13.0387 15.2962V3.37602C13.0387 3.09893 12.9833 2.82924 12.8725 2.56683C12.7617 2.30441 12.6151 2.07835 12.4326 1.88878C12.2502 1.6992 12.035 1.54612 11.7874 1.42939C11.5397 1.31279 11.2791 1.25449 11.0052 1.25449C10.7315 1.25449 10.4772 1.31279 10.2427 1.42939C10.0081 1.54599 9.79952 1.70278 9.61695 1.89962C9.43449 2.09647 9.29109 2.32253 9.18675 2.57767C9.08252 2.83282 9.03029 3.10621 9.03029 3.39784V9.43445L4.41571 2.19483C4.2462 1.91774 4.01809 1.68811 3.73129 1.50581C3.44449 1.32351 3.12511 1.23242 2.77324 1.23242C2.48644 1.23242 2.22252 1.29072 1.98136 1.40733C1.7402 1.52393 1.53163 1.68072 1.35565 1.87756C1.17966 2.0744 1.0395 2.30046 0.935265 2.55561C0.831033 2.81076 0.778809 3.08414 0.778809 3.37578V16.7395C0.778809 16.8708 0.837399 16.9801 0.954795 17.0676C1.07208 17.1552 1.20901 17.1989 1.36546 17.1989H4.18113C4.35054 17.1989 4.4907 17.1552 4.60151 17.0676C4.71233 16.9801 4.76768 16.8708 4.76768 16.7395V9.17191L9.46049 16.5864C9.61695 16.8343 9.83847 17.0275 10.1253 17.166C10.4121 17.3045 10.7118 17.3738 11.0247 17.3738C11.5983 17.3738 12.0773 17.1733 12.4619 16.7723C12.8464 16.3714 13.0387 15.8792 13.0387 15.2959V15.2962ZM25.3376 11.2936C25.3376 10.477 25.2073 9.70057 24.9466 8.96422C24.6859 8.22787 24.3241 7.58261 23.8613 7.02856C23.3986 6.47451 22.8511 6.03706 22.2189 5.71622C21.5867 5.3955 20.8926 5.23502 20.1365 5.23502C19.3804 5.23502 18.6863 5.39907 18.054 5.72719C17.4218 6.05531 16.8743 6.49633 16.4116 7.05038C15.9488 7.60443 15.5871 8.24969 15.3264 8.98604C15.0657 9.72239 14.9354 10.5062 14.9354 11.3373C14.9354 12.1539 15.0657 12.9303 15.3264 13.6667C15.5871 14.403 15.9488 15.0483 16.4116 15.6023C16.8743 16.1564 17.4251 16.5975 18.0638 16.9256C18.7026 17.2538 19.4 17.4178 20.156 17.4178C20.9121 17.4178 21.6062 17.2538 22.2384 16.9256C22.8706 16.5975 23.4149 16.1528 23.8711 15.5915C24.3273 15.0302 24.6858 14.3812 24.9465 13.6449C25.2072 12.9085 25.3375 12.1248 25.3375 11.2937L25.3376 11.2936ZM21.5248 11.3154C21.5248 11.6216 21.4988 11.9277 21.4465 12.234C21.3944 12.5402 21.3129 12.8136 21.2021 13.0542C21.0913 13.2948 20.9479 13.4917 20.7719 13.6447C20.5959 13.7978 20.3841 13.8744 20.1365 13.8744C19.9018 13.8744 19.6966 13.7941 19.5206 13.6338C19.3446 13.4734 19.2012 13.2693 19.0904 13.0214C18.9796 12.7735 18.8981 12.5002 18.846 12.2013C18.7939 11.9023 18.7678 11.6071 18.7678 11.3155C18.7678 11.0384 18.7939 10.7505 18.846 10.4516C18.8981 10.1527 18.9828 9.88657 19.1002 9.65324C19.2175 9.41991 19.3609 9.22676 19.5304 9.07368C19.6998 8.92059 19.9019 8.84404 20.1366 8.84404C20.3712 8.84404 20.5765 8.91689 20.7525 9.06283C20.9285 9.20864 21.0751 9.39822 21.1924 9.63155C21.3097 9.86487 21.3945 10.131 21.4466 10.4299C21.4988 10.7288 21.5249 11.0241 21.5249 11.3158L21.5248 11.3154ZM35.4271 7.26904C35.4271 7.00662 35.3782 6.75505 35.2805 6.51445C35.1827 6.27384 35.0459 6.06245 34.8699 5.88015C34.6939 5.69785 34.4919 5.55204 34.2637 5.44271C34.0356 5.33338 33.7912 5.27865 33.5305 5.27865C33.1134 5.27865 32.7387 5.40252 32.4062 5.65052C32.0738 5.8984 31.8489 6.23378 31.7316 6.65656L30.6562 10.4623L29.1115 5.60677C29.0463 5.49016 28.9421 5.40992 28.7987 5.36616C28.6553 5.32241 28.5119 5.32241 28.3685 5.36616L26.0808 6.56917C25.9374 6.61293 25.8331 6.68947 25.7679 6.7988C25.7028 6.90814 25.7028 7.02116 25.7679 7.13777L28.8574 15.9521C29.0138 16.3896 29.2387 16.7286 29.532 16.9692C29.8252 17.2098 30.2196 17.3301 30.7149 17.3301C31.1711 17.3301 31.5459 17.1952 31.8392 16.9254C32.1325 16.6556 32.3509 16.3312 32.4943 15.9521L32.3574 16.1052C32.4226 16.0177 32.5302 15.7991 32.6801 15.4491C32.8299 15.0992 32.9995 14.6836 33.1885 14.2024C33.3775 13.7212 33.5763 13.1999 33.7849 12.6386C33.9934 12.0771 34.1889 11.534 34.3714 11.0091C34.5539 10.4841 34.7136 10.0103 34.8505 9.58742C34.9873 9.16452 35.0818 8.8438 35.134 8.62501L35.095 8.69059C35.3166 8.03448 35.4274 7.56055 35.4274 7.26891L35.4271 7.26904ZM45.8098 17.2427C45.9663 17.2427 46.0999 17.1989 46.2107 17.1114C46.3215 17.0239 46.3769 16.9146 46.3769 16.7833V7.2471C46.3769 6.78056 46.2563 6.37948 46.0152 6.04409C45.774 5.7087 45.4058 5.51186 44.9104 5.45355C44.8713 5.45355 44.8224 5.44998 44.7638 5.44271C44.7052 5.43544 44.6497 5.43174 44.5976 5.43174C44.376 5.43174 44.1609 5.46452 43.9523 5.53022C43.7438 5.59579 43.5287 5.70882 43.3071 5.86931V5.84737C43.1637 5.93488 43.0529 6.01143 42.9747 6.077C42.8964 6.14257 42.8312 6.1973 42.7791 6.24106C42.5706 6.10979 42.3946 6.00773 42.2512 5.93488C42.1078 5.86203 41.9547 5.81101 41.7916 5.78179C41.6287 5.75258 41.4397 5.73434 41.2246 5.72707C41.0096 5.71979 40.7391 5.7161 40.4132 5.7161C40.0612 5.7161 39.7289 5.76713 39.416 5.86918C38.8815 6.02954 38.409 6.29209 37.9984 6.65656C37.5878 7.02116 37.2391 7.45121 36.9523 7.94696C36.6655 8.44271 36.4472 8.98222 36.2972 9.56548C36.1473 10.1487 36.0724 10.7465 36.0724 11.3589C36.0724 12.1608 36.1864 12.9264 36.4145 13.6555C36.6426 14.3845 36.9717 15.0225 37.4019 15.5693C37.8321 16.1161 38.3502 16.5535 38.9564 16.8816C39.5626 17.2098 40.2372 17.3738 40.9802 17.3738C41.3191 17.3738 41.6418 17.3338 41.9481 17.2535C42.2544 17.1733 42.5444 17.0457 42.8182 16.8708C42.8312 16.9729 42.8932 17.0604 43.0039 17.1332C43.1147 17.2061 43.2418 17.2425 43.3852 17.2425H45.8098V17.2427ZM42.6617 11.2716C42.6617 11.5778 42.6389 11.8841 42.5933 12.1903C42.5477 12.4965 42.4695 12.7735 42.3586 13.0214C42.2478 13.2693 42.1044 13.4698 41.9286 13.6229C41.7526 13.776 41.5342 13.8526 41.2735 13.8526C41.0389 13.8526 40.8336 13.776 40.6576 13.6229C40.4816 13.4698 40.3382 13.273 40.2274 13.0324C40.1166 12.7918 40.0351 12.5257 39.983 12.234C39.9309 11.9424 39.9048 11.6508 39.9048 11.3591C39.9048 11.0675 39.9341 10.7723 39.9927 10.4733C40.0513 10.1744 40.1393 9.90456 40.2566 9.66409C40.3739 9.42348 40.5206 9.23034 40.6965 9.08452C40.8725 8.93871 41.0779 8.86574 41.3124 8.86574C41.5601 8.86574 41.7686 8.93501 41.9382 9.07355C42.1076 9.21209 42.2445 9.39439 42.3487 9.62033C42.4529 9.84639 42.5312 10.1051 42.5834 10.3967C42.6355 10.6884 42.6616 10.98 42.6616 11.2716H42.6617ZM55.0781 3.35408C55.0781 2.82912 54.9119 2.3807 54.5795 2.00895C54.247 1.6372 53.8266 1.45121 53.3183 1.45121H45.9077C45.7513 1.45121 45.6144 1.49496 45.4972 1.58248C45.3799 1.66999 45.3212 1.77205 45.3212 1.88865L45.3407 4.75381C45.3407 4.88508 45.3993 4.99441 45.5167 5.08193C45.634 5.16944 45.7709 5.2132 45.9273 5.2132H48.0782V15.2742C48.0782 15.5659 48.1304 15.8355 48.2347 16.0834C48.3389 16.3313 48.4791 16.5537 48.6551 16.7505C48.8311 16.9473 49.0363 17.1004 49.271 17.2098C49.5056 17.3191 49.7533 17.3738 50.014 17.3738C50.2877 17.3738 50.5419 17.3191 50.7765 17.2098C51.0112 17.1004 51.2164 16.9509 51.3924 16.7613C51.5684 16.5718 51.7052 16.3494 51.803 16.0943C51.9007 15.8391 51.9496 15.5657 51.9496 15.2741V5.21308H53.3183C53.5529 5.21308 53.7745 5.16562 53.9831 5.07096C54.1917 4.97617 54.3775 4.8449 54.5404 4.67727C54.7033 4.50951 54.8337 4.31267 54.9314 4.08673C55.0292 3.86068 55.0781 3.6165 55.0781 3.35408ZM64.2094 10.9217C64.2094 10.1635 64.0726 9.44173 63.7988 8.75641C63.5251 8.07108 63.1568 7.47328 62.694 6.96299C62.2312 6.45257 61.6968 6.04434 61.0906 5.73816C60.4844 5.43198 59.8424 5.27877 59.1646 5.27877C58.4085 5.27877 57.7078 5.43556 57.0626 5.74901C56.4173 6.06245 55.86 6.48905 55.3908 7.02844C54.9215 7.56794 54.5533 8.20593 54.286 8.94228C54.0187 9.67863 53.8851 10.4623 53.8851 11.2936C53.8851 12.2122 54.0253 13.0434 54.3055 13.787C54.5857 14.5306 54.9769 15.1686 55.4787 15.7008C55.9806 16.2331 56.5705 16.645 57.2483 16.9366C57.9261 17.2283 58.6626 17.3741 59.4578 17.3741C59.9661 17.3741 60.4355 17.3303 60.8655 17.2428C61.2957 17.1553 61.7194 17.0095 62.1365 16.8053C62.2669 16.7761 62.3646 16.7143 62.4298 16.6195C62.495 16.5247 62.5145 16.4189 62.4885 16.3023L62.117 13.9183C62.091 13.7724 62.0095 13.6668 61.8726 13.6011C61.7357 13.5355 61.5761 13.5246 61.3935 13.5683C61.3675 13.5829 61.3349 13.5901 61.2957 13.5901C61.2827 13.5901 61.2762 13.5974 61.2762 13.612C61.2762 13.612 61.2697 13.612 61.2567 13.612C60.9569 13.6848 60.6701 13.7505 60.3964 13.8088C60.1227 13.8671 59.8815 13.8963 59.6729 13.8963C59.3079 13.8963 58.9788 13.7833 58.6855 13.5573C58.3922 13.3313 58.1674 13.0288 58.0109 12.6497H62.3908C62.9774 12.6497 63.4271 12.5331 63.74 12.2997C64.0528 12.0664 64.2093 11.6071 64.2093 10.9218L64.2094 10.9217ZM59.1255 8.55956C59.4254 8.55956 59.6698 8.70168 59.8587 8.98604C60.0478 9.2704 60.1749 9.60209 60.24 9.98123H57.9719C58.0761 9.60209 58.213 9.2704 58.3824 8.98604C58.5518 8.70168 58.7996 8.55956 59.1254 8.55956H59.1255ZM74.2206 14.968C74.2206 14.7347 74.175 14.5124 74.0838 14.301C73.9925 14.0896 73.8688 13.9 73.7123 13.7323C73.5558 13.5645 73.3766 13.4333 73.1746 13.3386C72.9726 13.2438 72.7543 13.1964 72.5196 13.1964C72.3631 13.1964 72.2165 13.2147 72.0797 13.2512C71.9428 13.2877 71.7831 13.3423 71.6006 13.4152C71.4312 13.4881 71.2584 13.5501 71.0824 13.6011C70.9065 13.6521 70.7468 13.6776 70.6034 13.6776C70.3817 13.6776 70.183 13.6084 70.007 13.4698C69.831 13.3313 69.6844 13.149 69.5671 12.9231C69.4498 12.697 69.3585 12.4419 69.2933 12.1575C69.2282 11.8731 69.1956 11.5925 69.1956 11.3154C69.1956 10.7029 69.3227 10.1671 69.5769 9.70784C69.8311 9.24846 70.1994 9.01882 70.6817 9.01882C70.8903 9.01882 71.1248 9.06628 71.3856 9.16094C71.6463 9.25573 71.907 9.36148 72.1677 9.47809C72.3632 9.58015 72.5587 9.65299 72.7543 9.69687C72.9107 9.74063 73.0574 9.73336 73.1942 9.67493C73.331 9.61663 73.4125 9.52184 73.4386 9.39057C73.4646 9.28852 73.4972 9.139 73.5363 8.94216C73.5754 8.74531 73.6341 8.52295 73.7123 8.27508C73.7905 7.9689 73.8654 7.6626 73.9372 7.35643C74.0088 7.05025 74.0577 6.79498 74.0838 6.59087C74.0838 6.50335 74.0545 6.41596 73.9959 6.32845C73.9373 6.24093 73.8623 6.18263 73.771 6.15354C73.3279 5.89112 72.8878 5.69416 72.4512 5.56301C72.0145 5.43174 71.5224 5.36616 70.9749 5.36616C70.0363 5.36616 69.1695 5.55931 68.3742 5.94573C67.5791 6.33215 66.9339 6.93365 66.4385 7.75012C66.1257 8.26041 65.8747 8.82543 65.6857 9.44518C65.4966 10.0649 65.4022 10.6955 65.4022 11.3371C65.4022 12.1682 65.5261 12.9411 65.7737 13.6555C66.0214 14.37 66.3636 14.9969 66.8003 15.5365C67.237 16.076 67.7583 16.5062 68.3645 16.8269C68.9707 17.1478 69.6323 17.3227 70.3491 17.3519C70.3882 17.3664 70.4795 17.3738 70.6229 17.3738C70.7923 17.3738 70.8966 17.3665 70.9357 17.3519C71.2485 17.3519 71.5972 17.3118 71.9818 17.2316C72.3663 17.1515 72.7248 17.0238 73.0572 16.8489C73.3896 16.6738 73.6667 16.4332 73.8883 16.1271C74.1099 15.8209 74.2206 15.4345 74.2206 14.9678V14.968Z" fill="white"/>
<path d="M20.5799 11.8242C20.5719 11.8445 20.2657 12.6501 20.0579 13.7965L20.0858 13.8422L20.2432 13.8491C20.4464 12.7261 20.7467 11.9347 20.7529 11.9182C20.9757 11.4536 21.211 11.2393 21.4149 11.3162C21.7924 11.4576 22.0855 12.521 21.9057 13.8055C21.8974 13.8381 21.1974 16.7551 22.2277 20.5806C21.9865 20.3657 21.7187 20.1048 21.4146 19.7772C20.7775 19.0901 20.4132 18.2673 20.2261 17.4164C20.1619 17.42 20.0962 17.4212 20.0303 17.4205C20.2211 18.3232 20.6025 19.2002 21.2812 19.932C21.6861 20.3691 22.0283 20.6887 22.3289 20.9401C22.438 21.3119 22.5638 21.6913 22.7078 22.0761C23.7603 24.8844 25.06 26.12 25.5934 25.9321C25.6781 25.9024 25.8475 25.7979 25.8412 25.4396C25.84 25.3736 25.8331 25.2997 25.8183 25.2157C25.7462 24.5967 25.147 23.1657 24.8827 22.7551L24.8201 22.8372L24.7633 22.9373C24.9167 23.1753 26.0178 25.5572 25.5357 25.7269C25.139 25.8663 23.9143 24.738 22.8856 21.9929C22.7796 21.7105 22.6841 21.4308 22.5978 21.1556C22.8552 21.3539 23.0832 21.5058 23.2991 21.6495C23.5015 21.7843 23.6978 21.915 23.9028 22.0734L23.9112 21.8203C23.7383 21.6918 23.5701 21.5792 23.3976 21.4646C23.1268 21.2843 22.8372 21.0914 22.4926 20.8081C21.3632 16.9043 22.0833 13.8948 22.0939 13.8512C22.2784 12.538 22.0012 11.3093 21.476 11.1119C21.3006 11.0455 20.9508 11.0494 20.5799 11.8241V11.8242Z" fill="white"/>
</svg>