<svg width="30" height="30" viewBox="0 0 30 30" fill="none" xmlns="http://www.w3.org/2000/svg">
<path fill-rule="evenodd" clip-rule="evenodd" d="M18.3438 23.4375C18.3438 23.9553 17.9415 24.375 17.4453 24.375L3.07031 24.375C2.57412 24.375 2.17188 23.9553 2.17188 23.4375L2.17188 6.5625C2.17188 6.04473 2.57412 5.625 3.07031 5.625L17.4453 5.625C17.9415 5.625 18.3438 6.04473 18.3438 6.5625L18.3438 10.3125C18.3438 10.8303 18.746 11.25 19.2422 11.25C19.7384 11.25 20.1406 10.8303 20.1406 10.3125L20.1406 6.5625C20.1406 5.0092 18.9339 3.75 17.4453 3.75L3.07031 3.75C1.58173 3.75 0.375001 5.0092 0.375001 6.5625L0.375 23.4375C0.375 24.9908 1.58173 26.25 3.07031 26.25L17.4453 26.25C18.9339 26.25 20.1406 24.9908 20.1406 23.4375L20.1406 19.6875C20.1406 19.1697 19.7384 18.75 19.2422 18.75C18.746 18.75 18.3438 19.1697 18.3438 19.6875L18.3438 23.4375Z" fill="white"/>
<path fill-rule="evenodd" clip-rule="evenodd" d="M28.8619 15.6629C29.2127 15.2968 29.2127 14.7032 28.8619 14.3371L23.4712 8.71209C23.1204 8.34597 22.5515 8.34597 22.2006 8.71209C21.8498 9.0782 21.8498 9.6718 22.2006 10.0379L26.0575 14.0625L10.2578 14.0625C9.76162 14.0625 9.35938 14.4822 9.35938 15C9.35938 15.5178 9.76162 15.9375 10.2578 15.9375L26.0575 15.9375L22.2006 19.9621C21.8498 20.3282 21.8498 20.9218 22.2006 21.2879C22.5515 21.654 23.1204 21.654 23.4712 21.2879L28.8619 15.6629Z" fill="white"/>
</svg>