<svg width="30" height="30" viewBox="0 0 30 30" fill="none" xmlns="http://www.w3.org/2000/svg">
<path d="M15.042 2.08649C14.8278 1.99709 14.5888 1.99709 14.3746 2.08649L3.65087 6.5625L7.97003 8.36529L19.0275 3.75L15.042 2.08649ZM21.4466 4.75972L10.3891 9.375L14.7083 11.1778L25.7658 6.5625L21.4466 4.75972ZM27.2864 7.94722L15.6068 12.8222V27.6778L27.2864 22.8028V7.94722ZM13.8099 27.6778V12.8222L2.13019 7.94722V22.8028L13.8099 27.6778ZM13.7073 0.345599C14.3499 0.0773867 15.0667 0.0773866 15.7093 0.345599L28.5185 5.69206C28.8596 5.83443 29.0833 6.17915 29.0833 6.5625V22.8028C29.0833 23.5695 28.636 24.2589 27.9538 24.5437L15.042 29.933C14.8278 30.0224 14.5888 30.0224 14.3746 29.933L1.46285 24.5437C0.780647 24.2589 0.333313 23.5695 0.333313 22.8028V6.5625C0.333313 6.17915 0.55698 5.83443 0.898079 5.69206L13.7073 0.345599Z" fill="white"/>
</svg>
