<svg width="30" height="30" viewBox="0 0 30 30" fill="none" xmlns="http://www.w3.org/2000/svg">
<path fill-rule="evenodd" clip-rule="evenodd" d="M0.333313 0H2.13019V28.125H29.0833V30H0.333313V0ZM18.3021 6.5625C18.3021 6.04473 18.7043 5.625 19.2005 5.625H26.388C26.8842 5.625 27.2864 6.04473 27.2864 6.5625V14.0625C27.2864 14.5803 26.8842 15 26.388 15C25.8918 15 25.4896 14.5803 25.4896 14.0625V9.18882L18.9974 17.4687C18.8367 17.6737 18.6003 17.7981 18.3468 17.8113C18.0933 17.8245 17.8463 17.7252 17.6668 17.5379L13.0196 12.6887L6.45054 22.1139C6.15869 22.5326 5.59679 22.6252 5.1955 22.3207C4.79421 22.0162 4.70549 21.4298 4.99734 21.0111L12.1848 10.6986C12.3394 10.4768 12.5792 10.3368 12.8412 10.3154C13.1031 10.2939 13.3609 10.3932 13.5467 10.5871L18.2354 15.4796L24.4921 7.5H19.2005C18.7043 7.5 18.3021 7.08027 18.3021 6.5625Z" fill="white"/>
</svg>