<svg width="31" height="31" viewBox="0 0 31 31" fill="none" xmlns="http://www.w3.org/2000/svg">
<path d="M15.2106 15.6058C19.3527 15.6058 22.7106 12.248 22.7106 8.10583C22.7106 3.9637 19.3527 0.605835 15.2106 0.605835C11.0684 0.605835 7.71057 3.9637 7.71057 8.10583C7.71057 12.248 11.0684 15.6058 15.2106 15.6058ZM20.2106 8.10583C20.2106 10.8673 17.972 13.1058 15.2106 13.1058C12.4491 13.1058 10.2106 10.8673 10.2106 8.10583C10.2106 5.34441 12.4491 3.10583 15.2106 3.10583C17.972 3.10583 20.2106 5.34441 20.2106 8.10583Z" fill="white"/>
<path d="M30.2106 28.1058C30.2106 30.6058 27.7106 30.6058 27.7106 30.6058H2.71057C2.71057 30.6058 0.210571 30.6058 0.210571 28.1058C0.210571 25.6058 2.71057 18.1058 15.2106 18.1058C27.7106 18.1058 30.2106 25.6058 30.2106 28.1058ZM27.7105 28.0971C27.707 27.4802 27.3261 25.632 25.6303 23.9361C23.9996 22.3055 20.9333 20.6058 15.2105 20.6058C9.48778 20.6058 6.42146 22.3055 4.79081 23.9361C3.09496 25.632 2.71413 27.4802 2.71057 28.0971H27.7105Z" fill="white"/>
</svg>